<svg width="25" height="24" viewBox="0 0 25 24" fill="none" xmlns="http://www.w3.org/2000/svg">
<path d="M12.4863 6.98601C13.266 6.98601 14.2432 6.45894 14.8252 5.75617C15.3523 5.11929 15.7366 4.22984 15.7366 3.3404C15.7366 3.21962 15.7256 3.09883 15.7037 3C14.8362 3.03294 13.793 3.58198 13.1671 4.31769C12.673 4.87771 12.2228 5.75617 12.2228 6.65659C12.2228 6.78836 12.2447 6.92013 12.2557 6.96405C12.3106 6.97503 12.3985 6.98601 12.4863 6.98601ZM9.74113 20.2727C10.8063 20.2727 11.2784 19.559 12.6071 19.559C13.9577 19.559 14.2542 20.2508 15.4401 20.2508C16.6041 20.2508 17.3837 19.1747 18.1194 18.1205C18.943 16.9126 19.2834 15.7267 19.3054 15.6718C19.2285 15.6498 16.9994 14.7384 16.9994 12.1799C16.9994 9.9618 18.7563 8.96255 18.8552 8.88568C17.6912 7.21661 15.9233 7.17269 15.4401 7.17269C14.1334 7.17269 13.0683 7.9633 12.3985 7.9633C11.6737 7.9633 10.7184 7.21661 9.5874 7.21661C7.43517 7.21661 5.25 8.99549 5.25 12.3556C5.25 14.4419 6.06258 16.6491 7.06182 18.0766C7.91832 19.2845 8.66501 20.2727 9.74113 20.2727Z" fill="#0A0E00"/>
</svg>
