<svg width="41" height="41" viewBox="0 0 41 41" fill="none" xmlns="http://www.w3.org/2000/svg">
<rect x="0.933533" y="0.0461426" width="40" height="40" rx="20" fill="#E6F2F9"/>
<path d="M17.9335 10.0461C15.3135 10.0461 13.1835 12.1761 13.1835 14.7961C13.1835 17.3661 15.1935 19.4461 17.8135 19.5361C17.8935 19.5261 17.9735 19.5261 18.0335 19.5361C18.0535 19.5361 18.0635 19.5361 18.0835 19.5361C18.0935 19.5361 18.0935 19.5361 18.1035 19.5361C20.6635 19.4461 22.6735 17.3661 22.6835 14.7961C22.6835 12.1761 20.5535 10.0461 17.9335 10.0461Z" fill="#2572A7"/>
<path d="M23.0135 22.1961C20.2235 20.3361 15.6735 20.3361 12.8635 22.1961C11.5935 23.0461 10.8935 24.1961 10.8935 25.4261C10.8935 26.6561 11.5935 27.7961 12.8535 28.6361C14.2535 29.5761 16.0935 30.0461 17.9335 30.0461C19.7735 30.0461 21.6135 29.5761 23.0135 28.6361C24.2735 27.7861 24.9735 26.6461 24.9735 25.4061C24.9635 24.1761 24.2735 23.0361 23.0135 22.1961Z" fill="#2572A7"/>
<path d="M28.9235 15.3861C29.0835 17.3261 27.7035 19.0261 25.7935 19.2561C25.7835 19.2561 25.7835 19.2561 25.7735 19.2561H25.7435C25.6835 19.2561 25.6235 19.2561 25.5735 19.2761C24.6035 19.3261 23.7135 19.0161 23.0435 18.4461C24.0735 17.5261 24.6635 16.1461 24.5435 14.6461C24.4735 13.8361 24.1935 13.0961 23.7735 12.4661C24.1535 12.2761 24.5935 12.1561 25.0435 12.1161C27.0035 11.9461 28.7535 13.4061 28.9235 15.3861Z" fill="#2572A7"/>
<path d="M30.9235 24.6362C30.8435 25.6062 30.2235 26.4462 29.1835 27.0162C28.1835 27.5662 26.9235 27.8262 25.6735 27.7962C26.3935 27.1462 26.8135 26.3362 26.8935 25.4762C26.9935 24.2362 26.4035 23.0462 25.2235 22.0962C24.5535 21.5662 23.7735 21.1462 22.9235 20.8362C25.1335 20.1962 27.9135 20.6262 29.6235 22.0062C30.5435 22.7462 31.0135 23.6762 30.9235 24.6362Z" fill="#2572A7"/>
</svg>
