<svg width="939" height="939" viewBox="0 0 939 939" fill="none" xmlns="http://www.w3.org/2000/svg">
<path d="M939 469.5C939 344.981 889.535 225.562 801.487 137.513C713.438 49.465 594.019 9.40093e-06 469.5 0C344.981 -9.40093e-06 225.562 49.465 137.513 137.513C49.4651 225.562 1.88019e-05 344.981 0 469.5L469.5 469.5H939Z" fill="#2572A7"/>
<path d="M864 469C864 364.24 822.384 263.77 748.307 189.693C674.23 115.616 573.761 74 469 74C364.24 74 263.77 115.616 189.693 189.693C115.616 263.77 74 364.239 74 469L469 469H864Z" fill="#3793D3"/>
<path d="M789 470C789 389.109 756.866 311.531 699.668 254.332C642.469 197.134 564.891 165 484 165C403.109 165 325.531 197.134 268.332 254.332C211.134 311.531 179 389.109 179 470L484 470H789Z" fill="#69AEDE"/>
</svg>
