<svg width="41" height="41" viewBox="0 0 41 41" fill="none" xmlns="http://www.w3.org/2000/svg">
<rect x="0.933533" y="0.0461426" width="40" height="40" rx="20" fill="#E6F2F9"/>
<path d="M12.4336 13.1062V26.9862C12.4336 27.3962 12.0936 27.7362 11.6836 27.7362C11.2736 27.7362 10.9336 27.3962 10.9336 26.9862V13.1062C10.9336 12.6962 11.2736 12.3562 11.6836 12.3562C12.0936 12.3562 12.4336 12.6962 12.4336 13.1062Z" fill="#2572A7"/>
<path d="M30.9336 13.1062V26.9862C30.9336 27.3962 30.5936 27.7362 30.1836 27.7362C29.7736 27.7362 29.4336 27.3962 29.4336 26.9862V13.1062C29.4336 12.6962 29.7736 12.3562 30.1836 12.3562C30.5936 12.3562 30.9336 12.6962 30.9336 13.1062Z" fill="#2572A7"/>
<path d="M16.9336 29.2961H24.9336C26.5936 29.2961 27.9336 27.9561 27.9336 26.2961V13.7961C27.9336 12.1361 26.5936 10.7961 24.9336 10.7961H16.9336C15.2736 10.7961 13.9336 12.1361 13.9336 13.7961V26.2961C13.9336 27.9561 15.2736 29.2961 16.9336 29.2961Z" fill="#2572A7"/>
</svg>
