<svg width="16" height="16" viewBox="0 0 16 16" fill="none" xmlns="http://www.w3.org/2000/svg">
<path d="M5.33301 1.58301H10.667C11.7858 1.58307 12.5441 1.90165 13.0254 2.41992C13.5096 2.94153 13.7499 3.70462 13.75 4.66602V11.333C13.75 12.2945 13.5096 13.0574 13.0254 13.5791C12.5441 14.0974 11.7858 14.416 10.667 14.416H5.33301C4.21417 14.416 3.45586 14.0974 2.97461 13.5791C2.49043 13.0574 2.25 12.2945 2.25 11.333V4.66602C2.25005 3.70462 2.49038 2.94153 2.97461 2.41992C3.45586 1.90165 4.21417 1.58307 5.33301 1.58301ZM5.33301 10.583C4.92175 10.5832 4.58301 10.9217 4.58301 11.333C4.58301 11.7443 4.92175 12.0828 5.33301 12.083H10.667C11.0783 12.0828 11.417 11.7443 11.417 11.333C11.417 10.9217 11.0783 10.5832 10.667 10.583H5.33301ZM5.33301 7.91602C4.92186 7.91619 4.58319 8.25487 4.58301 8.66602C4.58301 9.07731 4.92175 9.41584 5.33301 9.41602H8C8.4114 9.41602 8.75 9.07742 8.75 8.66602C8.74982 8.25476 8.4113 7.91602 8 7.91602H5.33301ZM9.66699 2.25C9.25559 2.25 8.91699 2.5886 8.91699 3V4.33301C8.91699 5.48441 9.8486 6.41602 11 6.41602H12.333C12.7444 6.41602 13.083 6.07742 13.083 5.66602C13.0828 5.25476 12.7443 4.91602 12.333 4.91602H11C10.6781 4.91602 10.417 4.65494 10.417 4.33301V3C10.417 2.5887 10.0782 2.25018 9.66699 2.25Z" fill="#071721" stroke="#CDE4F4" stroke-width="0.5"/>
</svg>
