<svg width="17" height="16" viewBox="0 0 17 16" fill="none" xmlns="http://www.w3.org/2000/svg">
<path d="M5.74402 0.439317C3.75608 1.10681 2.06046 2.5671 1.11909 4.40833C0.790103 5.04457 0.552289 5.72081 0.410749 6.41987C0.0498844 8.15797 0.301087 10.0083 1.11909 11.5939C1.64923 12.6285 2.4124 13.547 3.3356 14.2638C4.20843 14.9448 5.22281 15.4466 6.30157 15.7288C7.65896 16.0872 9.10752 16.0782 10.4783 15.7735C11.7168 15.4957 12.8867 14.9135 13.8188 14.0713C14.8058 13.1798 15.5097 12.0107 15.8846 10.752C16.2913 9.3767 16.3462 7.91172 16.0902 6.50518C13.531 6.50518 10.9718 6.50518 8.4081 6.50518C8.4081 7.54454 8.4081 8.58828 8.4081 9.62764C9.88886 9.62764 11.3741 9.62764 12.8545 9.62764C12.6808 10.6267 12.0776 11.5361 11.2185 12.1004C10.6791 12.4542 10.0623 12.6873 9.42248 12.7948C8.77821 12.9023 8.11546 12.9157 7.47566 12.7904C6.82215 12.6651 6.20052 12.396 5.65699 12.0198C4.78862 11.4239 4.12619 10.5461 3.78796 9.56483C3.4408 8.56578 3.43602 7.45048 3.78796 6.45143C4.03023 5.748 4.437 5.09395 4.9716 4.56551C5.62958 3.9024 6.48424 3.43209 7.40744 3.23959C8.19802 3.07397 9.02973 3.10522 9.80215 3.33366C10.4601 3.53084 11.0636 3.88021 11.5615 4.34614C12.0642 3.85771 12.5622 3.36522 13.0649 2.87679C13.3254 2.61241 13.6043 2.36148 13.86 2.08836C13.1013 1.39837 12.2058 0.843062 11.2322 0.493691C9.48655 -0.147551 7.50786 -0.160988 5.74402 0.439317Z" fill="white"/>
<path d="M5.74402 0.439317C7.50786 -0.160988 9.48687 -0.147551 11.2415 0.488691C12.2147 0.838062 13.106 1.39368 13.8692 2.08336C13.6132 2.35211 13.3391 2.60741 13.0742 2.87179C12.5714 3.36022 12.0735 3.85271 11.5708 4.34114C11.0725 3.87521 10.4694 3.52146 9.81139 3.32865C9.03898 3.10022 8.20727 3.06897 7.41668 3.23459C6.49348 3.42709 5.63914 3.90209 4.98085 4.56051C4.44625 5.08926 4.03948 5.74331 3.7972 6.44643C2.9062 5.76987 2.01487 5.08894 1.12387 4.4127C2.06046 2.5671 3.75608 1.10681 5.74402 0.439317Z" fill="#E94435"/>
<path d="M0.410749 6.41987C0.552289 5.72112 0.794566 5.04457 1.11909 4.40833C2.01009 5.08488 2.90141 5.76581 3.79242 6.44205C3.44048 7.4411 3.44526 8.5564 3.79242 9.55545C2.90141 10.232 2.01009 10.9129 1.11909 11.5892C0.301087 10.0126 0.0498844 8.15797 0.410749 6.41987Z" fill="#F8BB15"/>
<path d="M8.41257 6.50049C10.9718 6.50049 13.531 6.50049 16.0946 6.50049C16.3506 7.90703 16.2958 9.37202 15.889 10.7473C15.5145 12.006 14.8106 13.1798 13.8233 14.0666C12.9597 13.4082 12.0913 12.7495 11.2322 12.091C12.0913 11.5311 12.6945 10.6173 12.8682 9.61826C11.3875 9.61826 9.90225 9.61826 8.42181 9.61826C8.4081 8.58359 8.41257 7.54423 8.41257 6.50049Z" fill="#547DBE"/>
<path d="M1.11909 11.5939C2.01009 10.9173 2.90141 10.2364 3.79242 9.56014C4.13065 10.5458 4.79308 11.4192 5.66145 12.0151C6.2053 12.3914 6.82661 12.6557 7.48012 12.7857C8.11992 12.911 8.78714 12.8976 9.42694 12.7901C10.0667 12.6826 10.6836 12.4498 11.223 12.0957C12.0866 12.7542 12.9549 13.4129 13.8141 14.0713C12.8819 14.9179 11.712 15.496 10.4735 15.7735C9.1072 16.0782 7.65832 16.0869 6.29679 15.7288C5.21834 15.4466 4.20365 14.9448 3.33082 14.2638C2.4124 13.5426 1.64923 12.6242 1.11909 11.5939Z" fill="#34A751"/>
</svg>
