<svg width="42" height="42" viewBox="0 0 42 42" fill="none" xmlns="http://www.w3.org/2000/svg">
<rect x="0.5" y="0.5" width="41" height="41" rx="8.5" stroke="#A1A4B6"/>
<path d="M18.494 13.4393C16.5061 14.1068 14.8105 15.5671 13.8691 17.4083C13.5401 18.0446 13.3023 18.7208 13.1607 19.4199C12.7999 21.158 13.0511 23.0083 13.8691 24.5939C14.3992 25.6285 15.1624 26.547 16.0856 27.2638C16.9584 27.9448 17.9728 28.4466 19.0516 28.7288C20.409 29.0872 21.8575 29.0782 23.2283 28.7735C24.4668 28.4957 25.6367 27.9135 26.5688 27.0713C27.5558 26.1798 28.2597 25.0107 28.6346 23.752C29.0413 22.3767 29.0962 20.9117 28.8402 19.5052C26.281 19.5052 23.7218 19.5052 21.1581 19.5052C21.1581 20.5445 21.1581 21.5883 21.1581 22.6276C22.6389 22.6276 24.1241 22.6276 25.6045 22.6276C25.4308 23.6267 24.8276 24.5361 23.9685 25.1004C23.4291 25.4542 22.8123 25.6873 22.1725 25.7948C21.5282 25.9023 20.8655 25.9157 20.2257 25.7904C19.5721 25.6651 18.9505 25.396 18.407 25.0198C17.5386 24.4239 16.8762 23.5461 16.538 22.5648C16.1908 21.5658 16.186 20.4505 16.538 19.4514C16.7802 18.748 17.187 18.0939 17.7216 17.5655C18.3796 16.9024 19.2342 16.4321 20.1574 16.2396C20.948 16.074 21.7797 16.1052 22.5521 16.3337C23.2101 16.5308 23.8136 16.8802 24.3115 17.3461C24.8142 16.8577 25.3122 16.3652 25.8149 15.8768C26.0754 15.6124 26.3543 15.3615 26.61 15.0884C25.8513 14.3984 24.9558 13.8431 23.9822 13.4937C22.2366 12.8524 20.2579 12.839 18.494 13.4393Z" fill="white"/>
<path d="M18.494 13.4393C20.2579 12.839 22.2369 12.8524 23.9915 13.4887C24.9647 13.8381 25.856 14.3937 26.6192 15.0834C26.3632 15.3521 26.0891 15.6074 25.8242 15.8718C25.3214 16.3602 24.8235 16.8527 24.3208 17.3411C23.8225 16.8752 23.2194 16.5215 22.5614 16.3287C21.789 16.1002 20.9573 16.069 20.1667 16.2346C19.2435 16.4271 18.3891 16.9021 17.7308 17.5605C17.1962 18.0893 16.7895 18.7433 16.5472 19.4464C15.6562 18.7699 14.7649 18.0889 13.8739 17.4127C14.8105 15.5671 16.5061 14.1068 18.494 13.4393Z" fill="#E94435"/>
<path d="M13.1607 19.4199C13.3023 18.7211 13.5446 18.0446 13.8691 17.4083C14.7601 18.0849 15.6514 18.7658 16.5424 19.4421C16.1905 20.4411 16.1953 21.5564 16.5424 22.5555C15.6514 23.232 14.7601 23.9129 13.8691 24.5892C13.0511 23.0126 12.7999 21.158 13.1607 19.4199Z" fill="#F8BB15"/>
<path d="M21.1626 19.5005C23.7218 19.5005 26.281 19.5005 28.8446 19.5005C29.1006 20.907 29.0458 22.372 28.639 23.7473C28.2645 25.006 27.5606 26.1798 26.5733 27.0666C25.7097 26.4082 24.8413 25.7495 23.9822 25.091C24.8413 24.5311 25.4445 23.6173 25.6182 22.6183C24.1375 22.6183 22.6522 22.6183 21.1718 22.6183C21.1581 21.5836 21.1626 20.5442 21.1626 19.5005Z" fill="#547DBE"/>
<path d="M13.8691 24.5939C14.7601 23.9173 15.6514 23.2364 16.5424 22.5601C16.8806 23.5458 17.5431 24.4192 18.4115 25.0151C18.9553 25.3914 19.5766 25.6557 20.2301 25.7857C20.8699 25.911 21.5371 25.8976 22.1769 25.7901C22.8167 25.6826 23.4336 25.4498 23.973 25.0957C24.8366 25.7542 25.7049 26.4129 26.5641 27.0713C25.6319 27.9179 24.462 28.496 23.2235 28.7735C21.8572 29.0782 20.4083 29.0869 19.0468 28.7288C17.9683 28.4466 16.9537 27.9448 16.0808 27.2638C15.1624 26.5426 14.3992 25.6242 13.8691 24.5939Z" fill="#34A751"/>
</svg>
