<svg width="317" height="117" viewBox="0 0 317 117" fill="none" xmlns="http://www.w3.org/2000/svg">
<path d="M0.964134 99.6572L56.397 57.3017C58.2408 55.8928 60.7842 55.8387 62.6863 57.1677L90.2525 76.4285C92.1215 77.7344 94.6142 77.7069 96.454 76.3602L111.714 65.1899C113.626 63.7904 116.233 63.821 118.111 65.2648L141.752 83.4345C143.993 85.1571 147.189 84.8306 149.036 82.6904L182.753 43.6135C185.453 40.4844 190.532 41.4851 191.844 45.4045L192.525 47.4422C193.724 51.0258 198.168 52.2585 201.042 49.8044L201.653 49.2824C204.442 46.9008 208.747 47.9814 210.08 51.3977L213.191 59.3662C214.693 63.2157 219.815 63.9655 222.358 60.7081L225.49 56.6963C227.358 54.3033 230.845 53.9514 233.153 55.9229L237.144 59.331C239.399 61.2566 242.792 60.9719 244.694 58.6974L266.834 32.2286C269.295 29.2858 273.966 29.8286 275.686 33.2576L278.015 37.8979C279.633 41.1225 283.921 41.8417 286.503 39.3218L324.412 2.32349" stroke="#E6F2F9" stroke-width="4.22326"/>
<path d="M56.3993 57.2357L3.06065 97.9434C1.73941 98.9518 0.964134 100.519 0.964134 102.181V163.958C0.964134 166.902 3.35065 169.288 6.29458 169.288H319.081C322.025 169.288 324.412 166.902 324.412 163.958V2.32349L286.5 39.2813C283.918 41.798 279.634 41.0792 278.016 37.8575L275.686 33.2199C273.964 29.794 269.297 29.2513 266.836 32.1908L244.693 58.6334C242.791 60.905 239.401 61.1895 237.147 59.2667L233.151 55.8579C230.843 53.8893 227.359 54.2408 225.491 56.6309L222.356 60.6428C219.813 63.8969 214.694 63.1473 213.191 59.3005L210.08 51.3402C208.746 47.9265 204.445 46.8464 201.656 49.2249L201.039 49.7516C198.165 52.2026 193.725 50.9703 192.525 47.3891L191.843 45.3539C190.531 41.4371 185.455 40.4365 182.755 43.5624L149.034 82.5983C147.188 84.7357 143.995 85.0618 141.755 83.3419L118.109 65.1895C116.231 63.748 113.628 63.7176 111.717 65.1147L96.4517 76.2754C94.6128 77.6199 92.1229 77.6472 90.255 76.3436L62.6838 57.1019C60.7828 55.7751 58.2422 55.8292 56.3993 57.2357Z" fill="url(#paint0_linear_148_622)"/>
<defs>
<linearGradient id="paint0_linear_148_622" x1="162.688" y1="2.32349" x2="162.688" y2="131.246" gradientUnits="userSpaceOnUse">
<stop stop-color="#E6F2F9"/>
<stop offset="1" stop-color="#E6F2F9" stop-opacity="0"/>
</linearGradient>
</defs>
</svg>
