<svg width="32" height="32" viewBox="0 0 32 32" fill="none" xmlns="http://www.w3.org/2000/svg">
<rect width="32" height="32" rx="8" fill="#12B76A"/>
<path d="M12.3799 16.0001L14.7899 18.4201L19.6199 13.5801" stroke="#FDFDFD" stroke-width="1.5" stroke-linecap="round" stroke-linejoin="round"/>
<path d="M14.7499 6.45031C15.4399 5.86031 16.5699 5.86031 17.2699 6.45031L18.8499 7.81031C19.1499 8.07031 19.7099 8.28031 20.1099 8.28031H21.8099C22.8699 8.28031 23.7399 9.15031 23.7399 10.2103V11.9103C23.7399 12.3003 23.9499 12.8703 24.2099 13.1703L25.5699 14.7503C26.1599 15.4403 26.1599 16.5703 25.5699 17.2703L24.2099 18.8503C23.9499 19.1503 23.7399 19.7103 23.7399 20.1103V21.8103C23.7399 22.8703 22.8699 23.7403 21.8099 23.7403H20.1099C19.7199 23.7403 19.1499 23.9503 18.8499 24.2103L17.2699 25.5703C16.5799 26.1603 15.4499 26.1603 14.7499 25.5703L13.1699 24.2103C12.8699 23.9503 12.3099 23.7403 11.9099 23.7403H10.1799C9.11988 23.7403 8.24988 22.8703 8.24988 21.8103V20.1003C8.24988 19.7103 8.03988 19.1503 7.78988 18.8503L6.43988 17.2603C5.85988 16.5703 5.85988 15.4503 6.43988 14.7603L7.78988 13.1703C8.03988 12.8703 8.24988 12.3103 8.24988 11.9203V10.2003C8.24988 9.14031 9.11988 8.27031 10.1799 8.27031H11.9099C12.2999 8.27031 12.8699 8.06031 13.1699 7.80031L14.7499 6.45031Z" stroke="#FDFDFD" stroke-width="1.5" stroke-linecap="round" stroke-linejoin="round"/>
</svg>
