<svg width="48" height="48" viewBox="0 0 48 48" fill="none" xmlns="http://www.w3.org/2000/svg">
<rect x="0.5" y="0.5" width="47" height="47" rx="11.5" />
<rect x="0.5" y="0.5" width="47" height="47" rx="11.5" stroke="#E6F2F9"/>
<path d="M20 34H28C32.02 34 32.74 32.39 32.95 30.43L33.7 22.43C33.97 19.99 33.27 18 29 18H19C14.73 18 14.03 19.99 14.3 22.43L15.05 30.43C15.26 32.39 15.98 34 20 34Z" stroke="#040B11" stroke-width="1.5" stroke-miterlimit="10" stroke-linecap="round" stroke-linejoin="round"/>
<path d="M20 18V17.2C20 15.43 20 14 23.2 14H24.8C28 14 28 15.43 28 17.2V18" stroke="#040B11" stroke-width="1.5" stroke-miterlimit="10" stroke-linecap="round" stroke-linejoin="round"/>
<path d="M26 25V26C26 26.01 26 26.01 26 26.02C26 27.11 25.99 28 24 28C22.02 28 22 27.12 22 26.03V25C22 24 22 24 23 24H25C26 24 26 24 26 25Z" stroke="#040B11" stroke-width="1.5" stroke-miterlimit="10" stroke-linecap="round" stroke-linejoin="round"/>
<path d="M33.65 23C31.34 24.68 28.7 25.68 26 26.02" stroke="#040B11" stroke-width="1.5" stroke-miterlimit="10" stroke-linecap="round" stroke-linejoin="round"/>
<path d="M14.62 23.2695C16.87 24.8095 19.41 25.7395 22 26.0295" stroke="#040B11" stroke-width="1.5" stroke-miterlimit="10" stroke-linecap="round" stroke-linejoin="round"/>
</svg>
