<svg width="267" height="48" viewBox="0 0 267 48" fill="none" xmlns="http://www.w3.org/2000/svg">
<mask id="mask0_777_4314" style="mask-type:luminance" maskUnits="userSpaceOnUse" x="0" y="0" width="50" height="48">
<path d="M0 0H49.3264V48H0V0Z" fill="white"/>
</mask>
<g mask="url(#mask0_777_4314)">
<path d="M23.9167 47.8184C10.8195 47.8184 0.145874 37.1036 0.145874 23.9092C0.145874 10.7218 10.8195 0 23.9167 0C37.0139 0 47.6875 10.7357 47.6875 23.9092C47.6875 37.0827 37.0348 47.8184 23.9167 47.8184ZM23.9167 1.63446C11.7014 1.63446 1.77087 11.6228 1.77087 23.9092C1.77087 36.1956 11.7014 46.1909 23.9167 46.1909C36.132 46.1909 46.0625 36.1956 46.0625 23.9092C46.0625 11.6228 36.132 1.63446 23.9167 1.63446Z" fill="#E6F2F9"/>
</g>
<mask id="mask1_777_4314" style="mask-type:luminance" maskUnits="userSpaceOnUse" x="26" y="0" width="49" height="48">
<path d="M26.2152 0H74.2152V48H26.2152V0Z" fill="white"/>
</mask>
<g mask="url(#mask1_777_4314)">
<path d="M50.2083 47.8184C37.0903 47.8184 26.4375 37.1036 26.4375 23.9092C26.4375 10.7218 37.0903 0 50.2083 0C63.3264 0 73.9792 10.7357 73.9792 23.9092C73.9792 37.0827 63.3264 47.8184 50.2083 47.8184ZM50.2083 1.63446C37.9931 1.63446 28.0625 11.6228 28.0625 23.9092C28.0625 36.1956 37.9931 46.1909 50.2083 46.1909C62.4236 46.1909 72.3611 36.1956 72.3611 23.9092C72.3611 11.6228 62.4236 1.63446 50.2083 1.63446Z" fill="#E6F2F9"/>
</g>
<mask id="mask2_777_4314" style="mask-type:luminance" maskUnits="userSpaceOnUse" x="51" y="0" width="49" height="48">
<path d="M51.1041 0H100V48H51.1041V0Z" fill="white"/>
</mask>
<g mask="url(#mask2_777_4314)">
<path d="M76.5069 47.8184C63.3889 47.8184 52.7361 37.1036 52.7361 23.9092C52.7361 10.7218 63.3889 0 76.5069 0C89.625 0 100.278 10.7357 100.278 23.9092C100.278 37.0827 89.625 47.8184 76.5069 47.8184ZM76.5069 1.63446C64.2916 1.63446 54.3541 11.6228 54.3541 23.9092C54.3541 36.1956 64.2916 46.1909 76.5069 46.1909C88.7222 46.1909 98.6528 36.1956 98.6528 23.9092C98.6528 11.6228 88.7222 1.63446 76.5069 1.63446Z" fill="#E6F2F9"/>
</g>
<path d="M64.5486 8.40373H62.1666C62.5486 8.04052 62.9444 7.69826 63.3472 7.37695C63.7708 7.69826 64.1666 8.06147 64.5486 8.40373Z" fill="#E6F2F9"/>
<path d="M67.6319 12.027H59.0833C59.4652 11.4613 59.861 10.9164 60.3055 10.3926H66.4096C66.8541 10.9164 67.2499 11.4613 67.6319 12.027Z" fill="#E6F2F9"/>
<path d="M69.5972 15.654H57.118C57.3611 15.0882 57.618 14.5434 57.9028 14.0195H68.8125C69.0972 14.5434 69.3542 15.1092 69.5972 15.654Z" fill="#E6F2F9"/>
<path d="M70.7569 19.2779H55.9791C56.0972 18.7121 56.2361 18.1743 56.4166 17.6504H70.3333C70.4791 18.1882 70.6388 18.733 70.7569 19.2779Z" fill="#E6F2F9"/>
<path d="M71.2361 22.9029H55.4791C55.5 22.358 55.5555 21.7993 55.618 21.2754H71.0972C71.1597 21.8132 71.2152 22.358 71.2361 22.9029Z" fill="#32D583"/>
<path d="M71.2361 24.9004C71.2152 25.4452 71.1597 26.004 71.0972 26.5279H55.618C55.5347 25.983 55.5 25.4452 55.4791 24.9004H71.2361Z" fill="#32D583"/>
<path d="M70.7569 28.5254C70.6389 29.0702 70.5 29.629 70.3194 30.1529H56.375C56.2153 29.608 56.0556 29.0702 55.9375 28.5254H70.7569Z" fill="#E6F2F9"/>
<path d="M69.5972 32.1504C69.3541 32.7162 69.118 33.254 68.8124 33.7779H57.8819C57.5972 33.24 57.3402 32.6952 57.0972 32.1504H69.5972Z" fill="#E6F2F9"/>
<path d="M67.6527 35.7773C67.2708 36.3431 66.8749 36.8879 66.4305 37.4048H60.3055C59.861 36.8879 59.4652 36.3431 59.0833 35.7773H67.6527Z" fill="#E6F2F9"/>
<path d="M64.5693 39.4023C64.1874 39.7656 63.7707 40.1288 63.3471 40.471C62.9235 40.1288 62.5277 39.7865 62.1249 39.4023H64.5693Z" fill="#E6F2F9"/>
<path d="M38.2569 8.40373H35.875C36.25 8.04052 36.6528 7.69826 37.0556 7.37695C37.4722 7.69826 37.875 8.06147 38.2569 8.40373Z" fill="#E6F2F9"/>
<path d="M44.9444 22.9029H29.1805C29.2014 22.358 29.2639 21.7993 29.3264 21.2754H44.8055C44.8611 21.8132 44.9236 22.358 44.9444 22.9029Z" fill="#E6F2F9"/>
<path d="M38.2778 39.4023C37.8959 39.7656 37.4723 40.1288 37.0556 40.471C36.632 40.1288 36.2292 39.7865 35.8334 39.4023H38.2778Z" fill="#E6F2F9"/>
<path d="M41.3402 12.027H32.7847C33.1666 11.4613 33.5694 10.9164 34.0069 10.3926H40.118C40.5555 10.9164 40.9583 11.4613 41.3402 12.027Z" fill="#E6F2F9"/>
<path d="M43.2985 15.654H30.8263C31.0624 15.0882 31.3263 14.5434 31.6041 14.0195H42.5207C42.7985 14.5434 43.0624 15.1092 43.2985 15.654Z" fill="#E6F2F9"/>
<path d="M44.4653 19.2779H29.6805C29.8055 18.7121 29.9444 18.1743 30.125 17.6504H44.0417C44.1805 18.1882 44.3403 18.733 44.4653 19.2779Z" fill="#E6F2F9"/>
<path d="M41.3612 35.7773C40.9792 36.3431 40.5764 36.8879 40.1389 37.4048H33.9862C33.5487 36.8879 33.1459 36.3431 32.7709 35.7773H41.3612Z" fill="#E6F2F9"/>
<path d="M43.2986 32.1504C43.0625 32.7162 42.7986 33.254 42.5208 33.7779H31.5833C31.3055 33.24 31.0486 32.6952 30.8055 32.1504H43.2986Z" fill="#E6F2F9"/>
<path d="M44.4653 28.5254C44.3403 29.0702 44.2014 29.629 44.0209 30.1529H30.0834C29.9237 29.608 29.7639 29.0702 29.6459 28.5254H44.4653Z" fill="#E6F2F9"/>
<path d="M44.9444 24.9004C44.9236 25.4452 44.8611 26.004 44.8055 26.5279H29.3264C29.243 25.983 29.2014 25.4452 29.1805 24.9004H44.9444Z" fill="#E6F2F9"/>
<path d="M41.3402 12.027H32.7847C33.1666 11.4613 33.5694 10.9164 34.0069 10.3926H40.118C40.5555 10.9164 40.9583 11.4613 41.3402 12.027Z" fill="#E6F2F9"/>
<path d="M43.2985 15.654H30.8263C31.0624 15.0882 31.3263 14.5434 31.6041 14.0195H42.5207C42.7985 14.5434 43.0624 15.1092 43.2985 15.654Z" fill="#E6F2F9"/>
<path d="M44.4653 19.2779H29.6805C29.8055 18.7121 29.9444 18.1743 30.125 17.6504H44.0417C44.1805 18.1882 44.3403 18.733 44.4653 19.2779Z" fill="#E6F2F9"/>
<path d="M44.9444 24.9004C44.9236 25.4452 44.8611 26.004 44.8055 26.5279H29.3264C29.243 25.983 29.2014 25.4452 29.1805 24.9004H44.9444Z" fill="#32D583"/>
<path d="M44.4653 28.5254C44.3403 29.0702 44.2014 29.629 44.0209 30.1529H30.0834C29.9237 29.608 29.7639 29.0702 29.6459 28.5254H44.4653Z" fill="#E6F2F9"/>
<path d="M43.2986 32.1504C43.0625 32.7162 42.7986 33.254 42.5208 33.7779H31.5833C31.3055 33.24 31.0486 32.6952 30.8055 32.1504H43.2986Z" fill="#E6F2F9"/>
<path d="M41.3612 35.7773C40.9792 36.3431 40.5764 36.8879 40.1389 37.4048H33.9862C33.5487 36.8879 33.1459 36.3431 32.7709 35.7773H41.3612Z" fill="#E6F2F9"/>
<path d="M38.2569 8.40373H35.875C36.25 8.04052 36.6528 7.69826 37.0556 7.37695C37.4722 7.69826 37.875 8.06147 38.2569 8.40373Z" fill="#E6F2F9"/>
<path d="M44.9444 22.9029H29.1805C29.2014 22.358 29.2639 21.7993 29.3264 21.2754H44.8055C44.8611 21.8132 44.9236 22.358 44.9444 22.9029Z" fill="#32D583"/>
<path d="M35.8541 39.4023H38.2777C37.8958 39.7656 37.4722 40.1288 37.0555 40.471C36.6527 40.1078 36.2291 39.7656 35.8541 39.4023Z" fill="#E6F2F9"/>
<path d="M120.964 36.432C119.356 36.432 117.952 36.132 116.752 35.532C115.576 34.908 114.664 34.02 114.016 32.868C113.368 31.692 113.044 30.276 113.044 28.62H117.364C117.364 29.412 117.484 30.108 117.724 30.708C117.964 31.308 118.336 31.776 118.84 32.112C119.368 32.424 120.04 32.58 120.856 32.58C121.672 32.58 122.32 32.424 122.8 32.112C123.28 31.8 123.628 31.368 123.844 30.816C124.084 30.24 124.204 29.58 124.204 28.836V10.8H128.524V28.836C128.524 31.284 127.84 33.168 126.472 34.488C125.128 35.784 123.292 36.432 120.964 36.432ZM141.207 36.432C139.479 36.432 137.919 36.036 136.527 35.244C135.159 34.428 134.079 33.312 133.287 31.896C132.519 30.456 132.135 28.812 132.135 26.964C132.135 25.068 132.531 23.412 133.323 21.996C134.115 20.556 135.195 19.44 136.563 18.648C137.955 17.832 139.515 17.424 141.243 17.424C142.971 17.424 144.519 17.832 145.887 18.648C147.279 19.44 148.359 20.544 149.127 21.96C149.919 23.376 150.315 25.032 150.315 26.928C150.315 28.824 149.919 30.48 149.127 31.896C148.335 33.312 147.243 34.428 145.851 35.244C144.483 36.036 142.935 36.432 141.207 36.432ZM141.207 32.724C142.071 32.724 142.851 32.508 143.547 32.076C144.267 31.644 144.843 30.996 145.275 30.132C145.707 29.268 145.923 28.2 145.923 26.928C145.923 25.656 145.707 24.6 145.275 23.76C144.867 22.896 144.303 22.248 143.583 21.816C142.887 21.384 142.107 21.168 141.243 21.168C140.403 21.168 139.623 21.384 138.903 21.816C138.183 22.248 137.607 22.896 137.175 23.76C136.743 24.6 136.527 25.656 136.527 26.928C136.527 28.2 136.743 29.268 137.175 30.132C137.607 30.996 138.171 31.644 138.867 32.076C139.587 32.508 140.367 32.724 141.207 32.724ZM164.192 36.432C163.232 36.432 162.368 36.3 161.6 36.036C160.832 35.796 160.16 35.46 159.584 35.028C159.008 34.572 158.528 34.056 158.144 33.48L157.676 36H153.824V10.08H158.144V20.52C158.72 19.632 159.5 18.9 160.484 18.324C161.468 17.724 162.692 17.424 164.156 17.424C165.86 17.424 167.36 17.844 168.656 18.684C169.976 19.5 171.008 20.628 171.752 22.068C172.52 23.484 172.904 25.116 172.904 26.964C172.904 28.764 172.532 30.384 171.788 31.824C171.044 33.264 170.012 34.392 168.692 35.208C167.396 36.024 165.896 36.432 164.192 36.432ZM163.292 32.688C164.3 32.688 165.2 32.448 165.992 31.968C166.784 31.464 167.396 30.792 167.828 29.952C168.284 29.088 168.512 28.08 168.512 26.928C168.512 25.8 168.284 24.804 167.828 23.94C167.396 23.076 166.784 22.404 165.992 21.924C165.2 21.444 164.3 21.204 163.292 21.204C162.26 21.204 161.348 21.444 160.556 21.924C159.788 22.404 159.176 23.076 158.72 23.94C158.288 24.804 158.072 25.8 158.072 26.928C158.072 28.08 158.288 29.088 158.72 29.952C159.176 30.792 159.788 31.464 160.556 31.968C161.348 32.448 162.26 32.688 163.292 32.688ZM183.613 36.432C182.005 36.432 180.601 36.18 179.401 35.676C178.225 35.148 177.289 34.428 176.593 33.516C175.921 32.58 175.525 31.512 175.405 30.312H179.725C179.845 30.816 180.061 31.284 180.373 31.716C180.685 32.124 181.105 32.448 181.633 32.688C182.185 32.928 182.833 33.048 183.577 33.048C184.297 33.048 184.885 32.952 185.341 32.76C185.797 32.544 186.133 32.268 186.349 31.932C186.565 31.596 186.673 31.236 186.673 30.852C186.673 30.276 186.517 29.832 186.205 29.52C185.893 29.208 185.437 28.968 184.837 28.8C184.261 28.608 183.565 28.428 182.749 28.26C181.885 28.092 181.045 27.888 180.229 27.648C179.437 27.384 178.717 27.06 178.069 26.676C177.445 26.292 176.941 25.8 176.557 25.2C176.197 24.6 176.017 23.868 176.017 23.004C176.017 21.948 176.293 21 176.845 20.16C177.421 19.32 178.237 18.66 179.293 18.18C180.373 17.676 181.657 17.424 183.145 17.424C185.257 17.424 186.937 17.916 188.185 18.9C189.457 19.86 190.201 21.216 190.417 22.968H186.313C186.193 22.296 185.857 21.78 185.305 21.42C184.753 21.036 184.021 20.844 183.109 20.844C182.173 20.844 181.453 21.024 180.949 21.384C180.469 21.72 180.229 22.176 180.229 22.752C180.229 23.112 180.373 23.448 180.661 23.76C180.973 24.048 181.417 24.3 181.993 24.516C182.569 24.708 183.277 24.9 184.117 25.092C185.461 25.356 186.649 25.668 187.681 26.028C188.713 26.388 189.529 26.916 190.129 27.612C190.729 28.308 191.029 29.292 191.029 30.564C191.053 31.716 190.753 32.736 190.129 33.624C189.529 34.512 188.677 35.208 187.573 35.712C186.469 36.192 185.149 36.432 183.613 36.432ZM201.752 36C200.528 36 199.46 35.808 198.548 35.424C197.66 35.04 196.964 34.404 196.46 33.516C195.956 32.628 195.704 31.428 195.704 29.916V21.492H192.608V17.856H195.704L196.208 13.068H200.024V17.856H204.956V21.492H200.024V29.916C200.024 30.828 200.216 31.464 200.6 31.824C201.008 32.16 201.68 32.328 202.616 32.328H204.848V36H201.752ZM214.348 36.432C212.86 36.432 211.624 36.18 210.64 35.676C209.656 35.172 208.924 34.5 208.444 33.66C207.964 32.82 207.724 31.908 207.724 30.924C207.724 29.772 208.012 28.776 208.588 27.936C209.188 27.096 210.064 26.448 211.216 25.992C212.368 25.512 213.784 25.272 215.464 25.272H220.036C220.036 24.312 219.904 23.52 219.64 22.896C219.376 22.248 218.968 21.768 218.416 21.456C217.864 21.144 217.156 20.988 216.292 20.988C215.308 20.988 214.468 21.216 213.772 21.672C213.076 22.104 212.644 22.776 212.476 23.688H208.228C208.372 22.392 208.804 21.288 209.524 20.376C210.244 19.44 211.192 18.72 212.368 18.216C213.568 17.688 214.876 17.424 216.292 17.424C217.996 17.424 219.448 17.724 220.648 18.324C221.848 18.9 222.76 19.74 223.384 20.844C224.032 21.924 224.356 23.232 224.356 24.768V36H220.684L220.252 33.084C220.012 33.564 219.7 34.008 219.316 34.416C218.956 34.824 218.536 35.184 218.056 35.496C217.576 35.784 217.024 36.012 216.4 36.18C215.8 36.348 215.116 36.432 214.348 36.432ZM215.32 33.012C216.016 33.012 216.628 32.892 217.156 32.652C217.708 32.388 218.176 32.028 218.56 31.572C218.968 31.092 219.28 30.564 219.496 29.988C219.712 29.412 219.856 28.8 219.928 28.152V28.08H215.932C215.092 28.08 214.396 28.188 213.844 28.404C213.292 28.596 212.896 28.884 212.656 29.268C212.416 29.652 212.296 30.096 212.296 30.6C212.296 31.104 212.416 31.536 212.656 31.896C212.896 32.256 213.244 32.532 213.7 32.724C214.156 32.916 214.696 33.012 215.32 33.012ZM236.856 36.432C235.08 36.432 233.484 36.036 232.068 35.244C230.676 34.428 229.584 33.312 228.792 31.896C228.024 30.456 227.64 28.824 227.64 27C227.64 25.104 228.024 23.448 228.792 22.032C229.584 20.592 230.676 19.464 232.068 18.648C233.484 17.832 235.092 17.424 236.892 17.424C239.148 17.424 241.044 18.024 242.58 19.224C244.116 20.4 245.1 22.02 245.532 24.084H240.996C240.756 23.172 240.252 22.452 239.484 21.924C238.74 21.396 237.852 21.132 236.82 21.132C235.932 21.132 235.116 21.36 234.372 21.816C233.652 22.272 233.076 22.932 232.644 23.796C232.236 24.66 232.032 25.704 232.032 26.928C232.032 27.864 232.152 28.692 232.392 29.412C232.632 30.132 232.968 30.744 233.4 31.248C233.856 31.728 234.372 32.1 234.948 32.364C235.524 32.628 236.148 32.76 236.82 32.76C237.516 32.76 238.14 32.652 238.692 32.436C239.268 32.196 239.748 31.848 240.132 31.392C240.54 30.936 240.828 30.396 240.996 29.772H245.532C245.1 31.788 244.116 33.408 242.58 34.632C241.044 35.832 239.136 36.432 236.856 36.432ZM260.677 36L252.649 26.064L259.849 17.856H264.997L256.033 27.828V24.48L266.077 36H260.677ZM248.977 36V10.08H253.297V36H248.977Z" fill="#CDE4F4"/>
</svg>
