<svg width="64" height="31" viewBox="0 0 64 31" fill="none" xmlns="http://www.w3.org/2000/svg">
<mask id="mask0_312_6404" style="mask-type:luminance" maskUnits="userSpaceOnUse" x="0" y="0" width="32" height="31">
<path d="M0 0H31.0892V30.0782H0V0Z" fill="white"/>
</mask>
<g mask="url(#mask0_312_6404)">
<path d="M15.074 29.9644C6.81911 29.9644 0.0917969 23.2502 0.0917969 14.9822C0.0917969 6.71856 6.81911 0 15.074 0C23.3288 0 30.0561 6.72732 30.0561 14.9822C30.0561 23.237 23.342 29.9644 15.074 29.9644ZM15.074 1.0242C7.37498 1.0242 1.11599 7.28318 1.11599 14.9822C1.11599 22.6812 7.37498 28.9445 15.074 28.9445C22.773 28.9445 29.032 22.6812 29.032 14.9822C29.032 7.28318 22.773 1.0242 15.074 1.0242Z" fill="#1E5B86"/>
</g>
<mask id="mask1_312_6404" style="mask-type:luminance" maskUnits="userSpaceOnUse" x="16" y="0" width="31" height="31">
<path d="M16.5229 0H46.7762V30.0782H16.5229V0Z" fill="white"/>
</mask>
<g mask="url(#mask1_312_6404)">
<path d="M31.6453 29.9644C23.3773 29.9644 16.6631 23.2502 16.6631 14.9822C16.6631 6.71856 23.3773 0 31.6453 0C39.9133 0 46.6274 6.72732 46.6274 14.9822C46.6274 23.237 39.9133 29.9644 31.6453 29.9644ZM31.6453 1.0242C23.9463 1.0242 17.6873 7.28318 17.6873 14.9822C17.6873 22.6812 23.9463 28.9445 31.6453 28.9445C39.3443 28.9445 45.6076 22.6812 45.6076 14.9822C45.6076 7.28318 39.3443 1.0242 31.6453 1.0242Z" fill="#1E5B86"/>
</g>
<mask id="mask2_312_6404" style="mask-type:luminance" maskUnits="userSpaceOnUse" x="32" y="0" width="32" height="31">
<path d="M32.21 0H63.0278V30.0782H32.21V0Z" fill="white"/>
</mask>
<g mask="url(#mask2_312_6404)">
<path d="M48.2205 29.9644C39.9525 29.9644 33.2383 23.2502 33.2383 14.9822C33.2383 6.71856 39.9525 0 48.2205 0C56.4884 0 63.2026 6.72732 63.2026 14.9822C63.2026 23.237 56.4884 29.9644 48.2205 29.9644ZM48.2205 1.0242C40.5215 1.0242 34.2581 7.28318 34.2581 14.9822C34.2581 22.6812 40.5215 28.9445 48.2205 28.9445C55.9194 28.9445 62.1784 22.6812 62.1784 14.9822C62.1784 7.28318 55.9194 1.0242 48.2205 1.0242Z" fill="#1E5B86"/>
</g>
<path d="M40.6834 5.26548H39.1821C39.4229 5.03788 39.6723 4.82341 39.9262 4.62207C40.1932 4.82341 40.4427 5.05101 40.6834 5.26548Z" fill="#1E5B86"/>
<path d="M42.6268 7.53738H37.2388C37.4795 7.18285 37.729 6.84145 38.0091 6.51318H41.8564C42.1365 6.84145 42.386 7.18285 42.6268 7.53738Z" fill="#1E5B86"/>
<path d="M43.8653 9.80887H36C36.1532 9.45434 36.3151 9.11294 36.4946 8.78467H43.3707C43.5502 9.11294 43.7121 9.46747 43.8653 9.80887Z" fill="#1E5B86"/>
<path d="M44.5968 12.0804H35.2827C35.3571 11.7258 35.4447 11.3888 35.5585 11.0605H44.3298C44.4217 11.3976 44.5224 11.739 44.5968 12.0804Z" fill="#1E5B86"/>
<path d="M44.8985 14.3519H34.9673C34.9804 14.0105 35.0154 13.6603 35.0548 13.332H44.811C44.8504 13.6691 44.8854 14.0105 44.8985 14.3519Z" fill="#32D583"/>
<path d="M44.8985 15.604C44.8854 15.9454 44.8504 16.2956 44.811 16.6238H35.0548C35.0023 16.2824 34.9804 15.9454 34.9673 15.604H44.8985Z" fill="#32D583"/>
<path d="M44.5967 17.8755C44.5223 18.2169 44.4347 18.567 44.3209 18.8953H35.5321C35.4314 18.5539 35.3308 18.2169 35.2563 17.8755H44.5967Z" fill="#1E5B86"/>
<path d="M43.8657 20.147C43.7126 20.5015 43.5637 20.8385 43.3712 21.1668H36.4819C36.3024 20.8298 36.1405 20.4884 35.9873 20.147H43.8657Z" fill="#1E5B86"/>
<path d="M42.6399 22.4189C42.3992 22.7735 42.1497 23.1149 41.8695 23.4388H38.0091C37.729 23.1149 37.4795 22.7735 37.2388 22.4189H42.6399Z" fill="#1E5B86"/>
<path d="M40.6964 24.6904C40.4557 24.918 40.1931 25.1456 39.9261 25.3601C39.6591 25.1456 39.4096 24.9312 39.1558 24.6904H40.6964Z" fill="#1E5B86"/>
<path d="M24.1126 5.26548H22.6113C22.8477 5.03788 23.1015 4.82341 23.3554 4.62207C23.618 4.82341 23.8719 5.05101 24.1126 5.26548Z" fill="#1E5B86"/>
<path d="M28.3272 14.3519H18.3916C18.4047 14.0105 18.4441 13.6603 18.4835 13.332H28.2397C28.2747 13.6691 28.3141 14.0105 28.3272 14.3519Z" fill="#1E5B86"/>
<path d="M24.1256 24.6904C23.8849 24.918 23.6179 25.1456 23.3553 25.3601C23.0883 25.1456 22.8344 24.9312 22.585 24.6904H24.1256Z" fill="#1E5B86"/>
<path d="M26.0559 7.53738H20.6636C20.9043 7.18285 21.1582 6.84145 21.4339 6.51318H25.2856C25.5613 6.84145 25.8152 7.18285 26.0559 7.53738Z" fill="#1E5B86"/>
<path d="M27.2901 9.80887H19.4292C19.578 9.45434 19.7443 9.11294 19.9194 8.78467H26.7999C26.975 9.11294 27.1413 9.46747 27.2901 9.80887Z" fill="#1E5B86"/>
<path d="M28.0255 12.0804H18.707C18.7858 11.7258 18.8734 11.3888 18.9872 11.0605H27.7585C27.846 11.3976 27.9467 11.739 28.0255 12.0804Z" fill="#1E5B86"/>
<path d="M26.069 22.4189C25.8283 22.7735 25.5744 23.1149 25.2987 23.4388H21.4207C21.145 23.1149 20.8911 22.7735 20.6548 22.4189H26.069Z" fill="#1E5B86"/>
<path d="M27.2901 20.147C27.1413 20.5015 26.9749 20.8385 26.7999 21.1668H19.9062C19.7312 20.8298 19.5692 20.4884 19.416 20.147H27.2901Z" fill="#1E5B86"/>
<path d="M28.0254 17.8755C27.9466 18.2169 27.8591 18.567 27.7453 18.8953H18.9608C18.8601 18.5539 18.7595 18.2169 18.6851 17.8755H28.0254Z" fill="#1E5B86"/>
<path d="M28.3272 15.604C28.3141 15.9454 28.2747 16.2956 28.2397 16.6238H18.4835C18.431 16.2824 18.4047 15.9454 18.3916 15.604H28.3272Z" fill="#1E5B86"/>
<path d="M26.0559 7.53738H20.6636C20.9043 7.18285 21.1582 6.84145 21.4339 6.51318H25.2856C25.5613 6.84145 25.8152 7.18285 26.0559 7.53738Z" fill="#1E5B86"/>
<path d="M27.2901 9.80887H19.4292C19.578 9.45434 19.7443 9.11294 19.9194 8.78467H26.7999C26.975 9.11294 27.1413 9.46747 27.2901 9.80887Z" fill="#1E5B86"/>
<path d="M28.0255 12.0804H18.707C18.7858 11.7258 18.8734 11.3888 18.9872 11.0605H27.7585C27.846 11.3976 27.9467 11.739 28.0255 12.0804Z" fill="#1E5B86"/>
<path d="M28.3272 15.604C28.3141 15.9454 28.2747 16.2956 28.2397 16.6238H18.4835C18.431 16.2824 18.4047 15.9454 18.3916 15.604H28.3272Z" fill="#32D583"/>
<path d="M28.0254 17.8755C27.9466 18.2169 27.8591 18.567 27.7453 18.8953H18.9608C18.8601 18.5539 18.7595 18.2169 18.6851 17.8755H28.0254Z" fill="#1E5B86"/>
<path d="M27.2901 20.147C27.1413 20.5015 26.9749 20.8385 26.7999 21.1668H19.9062C19.7312 20.8298 19.5692 20.4884 19.416 20.147H27.2901Z" fill="#1E5B86"/>
<path d="M26.069 22.4189C25.8283 22.7735 25.5744 23.1149 25.2987 23.4388H21.4207C21.145 23.1149 20.8911 22.7735 20.6548 22.4189H26.069Z" fill="#1E5B86"/>
<path d="M24.1126 5.26548H22.6113C22.8477 5.03788 23.1015 4.82341 23.3554 4.62207C23.618 4.82341 23.8719 5.05101 24.1126 5.26548Z" fill="#1E5B86"/>
<path d="M28.3272 14.3519H18.3916C18.4047 14.0105 18.4441 13.6603 18.4835 13.332H28.2397C28.2747 13.6691 28.3141 14.0105 28.3272 14.3519Z" fill="#32D583"/>
<path d="M22.5981 24.6904H24.1257C23.885 24.918 23.618 25.1456 23.3554 25.3601C23.1015 25.1325 22.8345 24.918 22.5981 24.6904Z" fill="#1E5B86"/>
</svg>
