<svg width="239" height="48" viewBox="0 0 239 48" fill="none" xmlns="http://www.w3.org/2000/svg">
<mask id="mask0_297_1679" style="mask-type:luminance" maskUnits="userSpaceOnUse" x="0" y="0" width="50" height="48">
<path d="M0 0H49.3264V48H0V0Z" fill="white"/>
</mask>
<g mask="url(#mask0_297_1679)">
<path d="M23.9168 47.8184C10.8196 47.8184 0.145996 37.1036 0.145996 23.9092C0.145996 10.7218 10.8196 0 23.9168 0C37.0141 0 47.6877 10.7357 47.6877 23.9092C47.6877 37.0827 37.0349 47.8184 23.9168 47.8184ZM23.9168 1.63446C11.7016 1.63446 1.771 11.6228 1.771 23.9092C1.771 36.1956 11.7016 46.1909 23.9168 46.1909C36.1321 46.1909 46.0627 36.1956 46.0627 23.9092C46.0627 11.6228 36.1321 1.63446 23.9168 1.63446Z" fill="#1E5B86"/>
</g>
<mask id="mask1_297_1679" style="mask-type:luminance" maskUnits="userSpaceOnUse" x="26" y="0" width="49" height="48">
<path d="M26.2153 0H74.2153V48H26.2153V0Z" fill="white"/>
</mask>
<g mask="url(#mask1_297_1679)">
<path d="M50.2083 47.8184C37.0903 47.8184 26.4375 37.1036 26.4375 23.9092C26.4375 10.7218 37.0903 0 50.2083 0C63.3264 0 73.9792 10.7357 73.9792 23.9092C73.9792 37.0827 63.3264 47.8184 50.2083 47.8184ZM50.2083 1.63446C37.9931 1.63446 28.0625 11.6228 28.0625 23.9092C28.0625 36.1956 37.9931 46.1909 50.2083 46.1909C62.4236 46.1909 72.3611 36.1956 72.3611 23.9092C72.3611 11.6228 62.4236 1.63446 50.2083 1.63446Z" fill="#1E5B86"/>
</g>
<mask id="mask2_297_1679" style="mask-type:luminance" maskUnits="userSpaceOnUse" x="51" y="0" width="49" height="48">
<path d="M51.104 0H99.9998V48H51.104V0Z" fill="white"/>
</mask>
<g mask="url(#mask2_297_1679)">
<path d="M76.5067 47.8184C63.3886 47.8184 52.7358 37.1036 52.7358 23.9092C52.7358 10.7218 63.3886 0 76.5067 0C89.6247 0 100.278 10.7357 100.278 23.9092C100.278 37.0827 89.6247 47.8184 76.5067 47.8184ZM76.5067 1.63446C64.2914 1.63446 54.3539 11.6228 54.3539 23.9092C54.3539 36.1956 64.2914 46.1909 76.5067 46.1909C88.722 46.1909 98.6525 36.1956 98.6525 23.9092C98.6525 11.6228 88.722 1.63446 76.5067 1.63446Z" fill="#1E5B86"/>
</g>
<path d="M64.5484 8.40275H62.1665C62.5484 8.03954 62.9443 7.69728 63.3471 7.37598C63.7707 7.69728 64.1665 8.06049 64.5484 8.40275Z" fill="#1E5B86"/>
<path d="M67.6316 12.028H59.083C59.465 11.4622 59.8608 10.9174 60.3052 10.3936H66.4094C66.8538 10.9174 67.2497 11.4622 67.6316 12.028Z" fill="#1E5B86"/>
<path d="M69.5973 15.653H57.1182C57.3612 15.0872 57.6182 14.5424 57.9029 14.0186H68.8126C69.0973 14.5424 69.3543 15.1082 69.5973 15.653Z" fill="#1E5B86"/>
<path d="M70.7568 19.2784H55.979C56.0971 18.7126 56.2359 18.1747 56.4165 17.6509H70.3332C70.479 18.1887 70.6387 18.7335 70.7568 19.2784Z" fill="#1E5B86"/>
<path d="M71.2359 22.9034H55.479C55.4998 22.3585 55.5554 21.7997 55.6179 21.2759H71.0971C71.1596 21.8137 71.2151 22.3585 71.2359 22.9034Z" fill="#32D583"/>
<path d="M71.2359 24.9011C71.2151 25.4459 71.1596 26.0047 71.0971 26.5286H55.6179C55.5346 25.9838 55.4998 25.4459 55.479 24.9011H71.2359Z" fill="#32D583"/>
<path d="M70.7569 28.5261C70.6389 29.0709 70.5 29.6297 70.3194 30.1536H56.375C56.2153 29.6088 56.0556 29.0709 55.9375 28.5261H70.7569Z" fill="#1E5B86"/>
<path d="M69.5972 32.1514C69.3541 32.7171 69.118 33.255 68.8124 33.7788H57.8819C57.5972 33.241 57.3402 32.6962 57.0972 32.1514H69.5972Z" fill="#1E5B86"/>
<path d="M67.6525 35.7766C67.2705 36.3424 66.8747 36.8872 66.4302 37.4041H60.3052C59.8608 36.8872 59.465 36.3424 59.083 35.7766H67.6525Z" fill="#1E5B86"/>
<path d="M64.5694 39.4016C64.1875 39.7648 63.7708 40.128 63.3472 40.4703C62.9236 40.128 62.5278 39.7858 62.125 39.4016H64.5694Z" fill="#1E5B86"/>
<path d="M38.2569 8.40275H35.875C36.25 8.03954 36.6528 7.69728 37.0556 7.37598C37.4722 7.69728 37.875 8.06049 38.2569 8.40275Z" fill="#1E5B86"/>
<path d="M44.9446 22.9034H29.1807C29.2015 22.3585 29.264 21.7997 29.3265 21.2759H44.8057C44.8612 21.8137 44.9237 22.3585 44.9446 22.9034Z" fill="#1E5B86"/>
<path d="M38.2779 39.4016C37.896 39.7648 37.4724 40.128 37.0557 40.4703C36.6321 40.128 36.2293 39.7858 35.8335 39.4016H38.2779Z" fill="#1E5B86"/>
<path d="M41.3402 12.028H32.7847C33.1666 11.4622 33.5694 10.9174 34.0069 10.3936H40.118C40.5555 10.9174 40.9583 11.4622 41.3402 12.028Z" fill="#1E5B86"/>
<path d="M43.2984 15.653H30.8262C31.0623 15.0872 31.3262 14.5424 31.6039 14.0186H42.5206C42.7984 14.5424 43.0623 15.1082 43.2984 15.653Z" fill="#1E5B86"/>
<path d="M44.4654 19.2784H29.6807C29.8057 18.7126 29.9446 18.1747 30.1251 17.6509H44.0418C44.1807 18.1887 44.3404 18.7335 44.4654 19.2784Z" fill="#1E5B86"/>
<path d="M41.3613 35.7766C40.9793 36.3424 40.5766 36.8872 40.1391 37.4041H33.9863C33.5488 36.8872 33.146 36.3424 32.771 35.7766H41.3613Z" fill="#1E5B86"/>
<path d="M43.2987 32.1514C43.0626 32.7171 42.7987 33.255 42.5209 33.7788H31.5834C31.3057 33.241 31.0487 32.6962 30.8057 32.1514H43.2987Z" fill="#1E5B86"/>
<path d="M44.4654 28.5261C44.3404 29.0709 44.2016 29.6297 44.021 30.1536H30.0835C29.9238 29.6088 29.7641 29.0709 29.646 28.5261H44.4654Z" fill="#1E5B86"/>
<path d="M44.9446 24.9011C44.9237 25.4459 44.8612 26.0047 44.8057 26.5286H29.3265C29.2432 25.9838 29.2015 25.4459 29.1807 24.9011H44.9446Z" fill="#1E5B86"/>
<path d="M41.3402 12.028H32.7847C33.1666 11.4622 33.5694 10.9174 34.0069 10.3936H40.118C40.5555 10.9174 40.9583 11.4622 41.3402 12.028Z" fill="#1E5B86"/>
<path d="M43.2984 15.653H30.8262C31.0623 15.0872 31.3262 14.5424 31.6039 14.0186H42.5206C42.7984 14.5424 43.0623 15.1082 43.2984 15.653Z" fill="#1E5B86"/>
<path d="M44.4654 19.2784H29.6807C29.8057 18.7126 29.9446 18.1747 30.1251 17.6509H44.0418C44.1807 18.1887 44.3404 18.7335 44.4654 19.2784Z" fill="#1E5B86"/>
<path d="M44.9446 24.9011C44.9237 25.4459 44.8612 26.0047 44.8057 26.5286H29.3265C29.2432 25.9838 29.2015 25.4459 29.1807 24.9011H44.9446Z" fill="#32D583"/>
<path d="M44.4654 28.5261C44.3404 29.0709 44.2016 29.6297 44.021 30.1536H30.0835C29.9238 29.6088 29.7641 29.0709 29.646 28.5261H44.4654Z" fill="#1E5B86"/>
<path d="M43.2987 32.1514C43.0626 32.7171 42.7987 33.255 42.5209 33.7788H31.5834C31.3057 33.241 31.0487 32.6962 30.8057 32.1514H43.2987Z" fill="#1E5B86"/>
<path d="M41.3613 35.7766C40.9793 36.3424 40.5766 36.8872 40.1391 37.4041H33.9863C33.5488 36.8872 33.146 36.3424 32.771 35.7766H41.3613Z" fill="#1E5B86"/>
<path d="M38.2569 8.40275H35.875C36.25 8.03954 36.6528 7.69728 37.0556 7.37598C37.4722 7.69728 37.875 8.06049 38.2569 8.40275Z" fill="#1E5B86"/>
<path d="M44.9446 22.9034H29.1807C29.2015 22.3585 29.264 21.7997 29.3265 21.2759H44.8057C44.8612 21.8137 44.9237 22.3585 44.9446 22.9034Z" fill="#32D583"/>
<path d="M35.854 39.4016H38.2776C37.8957 39.7648 37.4721 40.128 37.0554 40.4703C36.6526 40.1071 36.229 39.7648 35.854 39.4016Z" fill="#1E5B86"/>
<path d="M112.207 34.36C110.867 34.36 109.697 34.11 108.697 33.61C107.717 33.09 106.957 32.35 106.417 31.39C105.877 30.41 105.607 29.23 105.607 27.85H109.207C109.207 28.51 109.307 29.09 109.507 29.59C109.707 30.09 110.017 30.48 110.437 30.76C110.877 31.02 111.437 31.15 112.117 31.15C112.797 31.15 113.337 31.02 113.737 30.76C114.137 30.5 114.427 30.14 114.607 29.68C114.807 29.2 114.907 28.65 114.907 28.03V13H118.507V28.03C118.507 30.07 117.937 31.64 116.797 32.74C115.677 33.82 114.147 34.36 112.207 34.36ZM129.676 34.36C128.236 34.36 126.936 34.03 125.776 33.37C124.636 32.69 123.736 31.76 123.076 30.58C122.436 29.38 122.116 28.01 122.116 26.47C122.116 24.89 122.446 23.51 123.106 22.33C123.766 21.13 124.666 20.2 125.806 19.54C126.966 18.86 128.266 18.52 129.706 18.52C131.146 18.52 132.436 18.86 133.576 19.54C134.736 20.2 135.636 21.12 136.276 22.3C136.936 23.48 137.266 24.86 137.266 26.44C137.266 28.02 136.936 29.4 136.276 30.58C135.616 31.76 134.706 32.69 133.546 33.37C132.406 34.03 131.116 34.36 129.676 34.36ZM129.676 31.27C130.396 31.27 131.046 31.09 131.626 30.73C132.226 30.37 132.706 29.83 133.066 29.11C133.426 28.39 133.606 27.5 133.606 26.44C133.606 25.38 133.426 24.5 133.066 23.8C132.726 23.08 132.256 22.54 131.656 22.18C131.076 21.82 130.426 21.64 129.706 21.64C129.006 21.64 128.356 21.82 127.756 22.18C127.156 22.54 126.676 23.08 126.316 23.8C125.956 24.5 125.776 25.38 125.776 26.44C125.776 27.5 125.956 28.39 126.316 29.11C126.676 29.83 127.146 30.37 127.726 30.73C128.326 31.09 128.976 31.27 129.676 31.27ZM149.43 34.36C148.63 34.36 147.91 34.25 147.27 34.03C146.63 33.83 146.07 33.55 145.59 33.19C145.11 32.81 144.71 32.38 144.39 31.9L144 34H140.79V12.4H144.39V21.1C144.87 20.36 145.52 19.75 146.34 19.27C147.16 18.77 148.18 18.52 149.4 18.52C150.82 18.52 152.07 18.87 153.15 19.57C154.25 20.25 155.11 21.19 155.73 22.39C156.37 23.57 156.69 24.93 156.69 26.47C156.69 27.97 156.38 29.32 155.76 30.52C155.14 31.72 154.28 32.66 153.18 33.34C152.1 34.02 150.85 34.36 149.43 34.36ZM148.68 31.24C149.52 31.24 150.27 31.04 150.93 30.64C151.59 30.22 152.1 29.66 152.46 28.96C152.84 28.24 153.03 27.4 153.03 26.44C153.03 25.5 152.84 24.67 152.46 23.95C152.1 23.23 151.59 22.67 150.93 22.27C150.27 21.87 149.52 21.67 148.68 21.67C147.82 21.67 147.06 21.87 146.4 22.27C145.76 22.67 145.25 23.23 144.87 23.95C144.51 24.67 144.33 25.5 144.33 26.44C144.33 27.4 144.51 28.24 144.87 28.96C145.25 29.66 145.76 30.22 146.4 30.64C147.06 31.04 147.82 31.24 148.68 31.24ZM166.214 34.36C164.874 34.36 163.704 34.15 162.704 33.73C161.724 33.29 160.944 32.69 160.364 31.93C159.804 31.15 159.474 30.26 159.374 29.26H162.974C163.074 29.68 163.254 30.07 163.514 30.43C163.774 30.77 164.124 31.04 164.564 31.24C165.024 31.44 165.564 31.54 166.184 31.54C166.784 31.54 167.274 31.46 167.654 31.3C168.034 31.12 168.314 30.89 168.494 30.61C168.674 30.33 168.764 30.03 168.764 29.71C168.764 29.23 168.634 28.86 168.374 28.6C168.114 28.34 167.734 28.14 167.234 28C166.754 27.84 166.174 27.69 165.494 27.55C164.774 27.41 164.074 27.24 163.394 27.04C162.734 26.82 162.134 26.55 161.594 26.23C161.074 25.91 160.654 25.5 160.334 25C160.034 24.5 159.884 23.89 159.884 23.17C159.884 22.29 160.114 21.5 160.574 20.8C161.054 20.1 161.734 19.55 162.614 19.15C163.514 18.73 164.584 18.52 165.824 18.52C167.584 18.52 168.984 18.93 170.024 19.75C171.084 20.55 171.704 21.68 171.884 23.14H168.464C168.364 22.58 168.084 22.15 167.624 21.85C167.164 21.53 166.554 21.37 165.794 21.37C165.014 21.37 164.414 21.52 163.994 21.82C163.594 22.1 163.394 22.48 163.394 22.96C163.394 23.26 163.514 23.54 163.754 23.8C164.014 24.04 164.384 24.25 164.864 24.43C165.344 24.59 165.934 24.75 166.634 24.91C167.754 25.13 168.744 25.39 169.604 25.69C170.464 25.99 171.144 26.43 171.644 27.01C172.144 27.59 172.394 28.41 172.394 29.47C172.414 30.43 172.164 31.28 171.644 32.02C171.144 32.76 170.434 33.34 169.514 33.76C168.594 34.16 167.494 34.36 166.214 34.36ZM181.93 34C180.91 34 180.02 33.84 179.26 33.52C178.52 33.2 177.94 32.67 177.52 31.93C177.1 31.19 176.89 30.19 176.89 28.93V21.91H174.31V18.88H176.89L177.31 14.89H180.49V18.88H184.6V21.91H180.49V28.93C180.49 29.69 180.65 30.22 180.97 30.52C181.31 30.8 181.87 30.94 182.65 30.94H184.51V34H181.93ZM193.027 34.36C191.787 34.36 190.757 34.15 189.937 33.73C189.117 33.31 188.507 32.75 188.107 32.05C187.707 31.35 187.507 30.59 187.507 29.77C187.507 28.81 187.747 27.98 188.227 27.28C188.727 26.58 189.457 26.04 190.417 25.66C191.377 25.26 192.557 25.06 193.957 25.06H197.767C197.767 24.26 197.657 23.6 197.437 23.08C197.217 22.54 196.877 22.14 196.417 21.88C195.957 21.62 195.367 21.49 194.647 21.49C193.827 21.49 193.127 21.68 192.547 22.06C191.967 22.42 191.607 22.98 191.467 23.74H187.927C188.047 22.66 188.407 21.74 189.007 20.98C189.607 20.2 190.397 19.6 191.377 19.18C192.377 18.74 193.467 18.52 194.647 18.52C196.067 18.52 197.277 18.77 198.277 19.27C199.277 19.75 200.037 20.45 200.557 21.37C201.097 22.27 201.367 23.36 201.367 24.64V34H198.307L197.947 31.57C197.747 31.97 197.487 32.34 197.167 32.68C196.867 33.02 196.517 33.32 196.117 33.58C195.717 33.82 195.257 34.01 194.737 34.15C194.237 34.29 193.667 34.36 193.027 34.36ZM193.837 31.51C194.417 31.51 194.927 31.41 195.367 31.21C195.827 30.99 196.217 30.69 196.537 30.31C196.877 29.91 197.137 29.47 197.317 28.99C197.497 28.51 197.617 28 197.677 27.46V27.4H194.347C193.647 27.4 193.067 27.49 192.607 27.67C192.147 27.83 191.817 28.07 191.617 28.39C191.417 28.71 191.317 29.08 191.317 29.5C191.317 29.92 191.417 30.28 191.617 30.58C191.817 30.88 192.107 31.11 192.487 31.27C192.867 31.43 193.317 31.51 193.837 31.51ZM212.384 34.36C210.904 34.36 209.574 34.03 208.394 33.37C207.234 32.69 206.324 31.76 205.664 30.58C205.024 29.38 204.704 28.02 204.704 26.5C204.704 24.92 205.024 23.54 205.664 22.36C206.324 21.16 207.234 20.22 208.394 19.54C209.574 18.86 210.914 18.52 212.414 18.52C214.294 18.52 215.874 19.02 217.154 20.02C218.434 21 219.254 22.35 219.614 24.07H215.834C215.634 23.31 215.214 22.71 214.574 22.27C213.954 21.83 213.214 21.61 212.354 21.61C211.614 21.61 210.934 21.8 210.314 22.18C209.714 22.56 209.234 23.11 208.874 23.83C208.534 24.55 208.364 25.42 208.364 26.44C208.364 27.22 208.464 27.91 208.664 28.51C208.864 29.11 209.144 29.62 209.504 30.04C209.884 30.44 210.314 30.75 210.794 30.97C211.274 31.19 211.794 31.3 212.354 31.3C212.934 31.3 213.454 31.21 213.914 31.03C214.394 30.83 214.794 30.54 215.114 30.16C215.454 29.78 215.694 29.33 215.834 28.81H219.614C219.254 30.49 218.434 31.84 217.154 32.86C215.874 33.86 214.284 34.36 212.384 34.36ZM232.835 34L226.145 25.72L232.145 18.88H236.435L228.965 27.19V24.4L237.335 34H232.835ZM223.085 34V12.4H226.685V34H223.085Z" fill="#1E5B86"/>
</svg>
