<svg width="100" height="48" viewBox="0 0 100 48" fill="none" xmlns="http://www.w3.org/2000/svg">
<mask id="mask0_124_21132" style="mask-type:luminance" maskUnits="userSpaceOnUse" x="0" y="0" width="50" height="48">
<path d="M0 0H49.3264V48H0V0Z" fill="white"/>
</mask>
<g mask="url(#mask0_124_21132)">
<path d="M23.9167 47.8184C10.8194 47.8184 0.145836 37.1036 0.145836 23.9092C0.145836 10.7218 10.8194 0 23.9167 0C37.0139 0 47.6875 10.7357 47.6875 23.9092C47.6875 37.0827 37.0347 47.8184 23.9167 47.8184ZM23.9167 1.63446C11.7014 1.63446 1.77084 11.6228 1.77084 23.9092C1.77084 36.1956 11.7014 46.1909 23.9167 46.1909C36.1319 46.1909 46.0625 36.1956 46.0625 23.9092C46.0625 11.6228 36.1319 1.63446 23.9167 1.63446Z" fill="#E6F2F9"/>
</g>
<mask id="mask1_124_21132" style="mask-type:luminance" maskUnits="userSpaceOnUse" x="26" y="0" width="49" height="48">
<path d="M26.2152 0H74.2152V48H26.2152V0Z" fill="white"/>
</mask>
<g mask="url(#mask1_124_21132)">
<path d="M50.2083 47.8184C37.0903 47.8184 26.4375 37.1036 26.4375 23.9092C26.4375 10.7218 37.0903 0 50.2083 0C63.3264 0 73.9791 10.7357 73.9791 23.9092C73.9791 37.0827 63.3264 47.8184 50.2083 47.8184ZM50.2083 1.63446C37.993 1.63446 28.0625 11.6228 28.0625 23.9092C28.0625 36.1956 37.993 46.1909 50.2083 46.1909C62.4236 46.1909 72.3611 36.1956 72.3611 23.9092C72.3611 11.6228 62.4236 1.63446 50.2083 1.63446Z" fill="#E6F2F9"/>
</g>
<mask id="mask2_124_21132" style="mask-type:luminance" maskUnits="userSpaceOnUse" x="51" y="0" width="49" height="48">
<path d="M51.1042 0H100V48H51.1042V0Z" fill="white"/>
</mask>
<g mask="url(#mask2_124_21132)">
<path d="M76.5069 47.8184C63.3889 47.8184 52.7361 37.1036 52.7361 23.9092C52.7361 10.7218 63.3889 0 76.5069 0C89.625 0 100.278 10.7357 100.278 23.9092C100.278 37.0827 89.625 47.8184 76.5069 47.8184ZM76.5069 1.63446C64.2917 1.63446 54.3542 11.6228 54.3542 23.9092C54.3542 36.1956 64.2917 46.1909 76.5069 46.1909C88.7222 46.1909 98.6528 36.1956 98.6528 23.9092C98.6528 11.6228 88.7222 1.63446 76.5069 1.63446Z" fill="#E6F2F9"/>
</g>
<path d="M64.5485 8.40279H62.1666C62.5485 8.03958 62.9444 7.69732 63.3471 7.37602C63.7707 7.69732 64.1666 8.06053 64.5485 8.40279Z" fill="#E6F2F9"/>
<path d="M67.6319 12.0279H59.0833C59.4652 11.4622 59.861 10.9173 60.3055 10.3935H66.4096C66.8541 10.9173 67.2499 11.4622 67.6319 12.0279Z" fill="#E6F2F9"/>
<path d="M69.5972 15.6531H57.118C57.3611 15.0873 57.618 14.5425 57.9027 14.0186H68.8124C69.0972 14.5425 69.3541 15.1083 69.5972 15.6531Z" fill="#E6F2F9"/>
<path d="M70.757 19.2782H55.9792C56.0972 18.7125 56.2361 18.1746 56.4167 17.6508H70.3333C70.4792 18.1886 70.6389 18.7334 70.757 19.2782Z" fill="#E6F2F9"/>
<path d="M71.2361 22.9034H55.4792C55.5 22.3586 55.5556 21.7998 55.6181 21.2759H71.0972C71.1597 21.8138 71.2153 22.3586 71.2361 22.9034Z" fill="#32D583"/>
<path d="M71.2361 24.9011C71.2153 25.4459 71.1597 26.0047 71.0972 26.5285H55.6181C55.5347 25.9837 55.5 25.4459 55.4792 24.9011H71.2361Z" fill="#32D583"/>
<path d="M70.7569 28.5262C70.6389 29.071 70.5 29.6298 70.3194 30.1537H56.375C56.2153 29.6089 56.0556 29.071 55.9375 28.5262H70.7569Z" fill="#E6F2F9"/>
<path d="M69.5972 32.1514C69.3541 32.7171 69.118 33.255 68.8124 33.7788H57.8819C57.5972 33.241 57.3402 32.6962 57.0972 32.1514H69.5972Z" fill="#E6F2F9"/>
<path d="M67.6527 35.7765C67.2708 36.3423 66.8749 36.8871 66.4305 37.404H60.3055C59.861 36.8871 59.4652 36.3423 59.0833 35.7765H67.6527Z" fill="#E6F2F9"/>
<path d="M64.5694 39.4016C64.1874 39.7649 63.7708 40.1281 63.3471 40.4703C62.9235 40.1281 62.5277 39.7858 62.1249 39.4016H64.5694Z" fill="#E6F2F9"/>
<path d="M38.2569 8.40279H35.875C36.25 8.03958 36.6528 7.69732 37.0556 7.37602C37.4722 7.69732 37.875 8.06053 38.2569 8.40279Z" fill="#E6F2F9"/>
<path d="M44.9444 22.9034H29.1805C29.2013 22.3586 29.2638 21.7998 29.3263 21.2759H44.8055C44.8611 21.8138 44.9236 22.3586 44.9444 22.9034Z" fill="#E6F2F9"/>
<path d="M38.2778 39.4016C37.8958 39.7649 37.4722 40.1281 37.0556 40.4703C36.6319 40.1281 36.2292 39.7858 35.8333 39.4016H38.2778Z" fill="#E6F2F9"/>
<path d="M41.3402 12.0279H32.7847C33.1666 11.4622 33.5694 10.9173 34.0069 10.3935H40.118C40.5555 10.9173 40.9583 11.4622 41.3402 12.0279Z" fill="#E6F2F9"/>
<path d="M43.2986 15.6531H30.8263C31.0624 15.0873 31.3263 14.5425 31.6041 14.0186H42.5208C42.7986 14.5425 43.0625 15.1083 43.2986 15.6531Z" fill="#E6F2F9"/>
<path d="M44.4652 19.2782H29.6805C29.8055 18.7125 29.9444 18.1746 30.1249 17.6508H44.0416C44.1805 18.1886 44.3402 18.7334 44.4652 19.2782Z" fill="#E6F2F9"/>
<path d="M41.3611 35.7765C40.9792 36.3423 40.5764 36.8871 40.1389 37.404H33.9861C33.5486 36.8871 33.1458 36.3423 32.7708 35.7765H41.3611Z" fill="#E6F2F9"/>
<path d="M43.2986 32.1514C43.0624 32.7171 42.7986 33.255 42.5208 33.7788H31.5833C31.3055 33.241 31.0486 32.6962 30.8055 32.1514H43.2986Z" fill="#E6F2F9"/>
<path d="M44.4653 28.5262C44.3403 29.071 44.2014 29.6298 44.0208 30.1537H30.0833C29.9236 29.6089 29.7639 29.071 29.6458 28.5262H44.4653Z" fill="#E6F2F9"/>
<path d="M44.9444 24.9011C44.9236 25.4459 44.8611 26.0047 44.8055 26.5285H29.3263C29.243 25.9837 29.2013 25.4459 29.1805 24.9011H44.9444Z" fill="#E6F2F9"/>
<path d="M41.3402 12.0279H32.7847C33.1666 11.4622 33.5694 10.9173 34.0069 10.3935H40.118C40.5555 10.9173 40.9583 11.4622 41.3402 12.0279Z" fill="#E6F2F9"/>
<path d="M43.2986 15.6531H30.8263C31.0624 15.0873 31.3263 14.5425 31.6041 14.0186H42.5208C42.7986 14.5425 43.0625 15.1083 43.2986 15.6531Z" fill="#E6F2F9"/>
<path d="M44.4652 19.2782H29.6805C29.8055 18.7125 29.9444 18.1746 30.1249 17.6508H44.0416C44.1805 18.1886 44.3402 18.7334 44.4652 19.2782Z" fill="#E6F2F9"/>
<path d="M44.9444 24.9011C44.9236 25.4459 44.8611 26.0047 44.8055 26.5285H29.3263C29.243 25.9837 29.2013 25.4459 29.1805 24.9011H44.9444Z" fill="#32D583"/>
<path d="M44.4653 28.5262C44.3403 29.071 44.2014 29.6298 44.0208 30.1537H30.0833C29.9236 29.6089 29.7639 29.071 29.6458 28.5262H44.4653Z" fill="#E6F2F9"/>
<path d="M43.2986 32.1514C43.0624 32.7171 42.7986 33.255 42.5208 33.7788H31.5833C31.3055 33.241 31.0486 32.6962 30.8055 32.1514H43.2986Z" fill="#E6F2F9"/>
<path d="M41.3611 35.7765C40.9792 36.3423 40.5764 36.8871 40.1389 37.404H33.9861C33.5486 36.8871 33.1458 36.3423 32.7708 35.7765H41.3611Z" fill="#E6F2F9"/>
<path d="M38.2569 8.40279H35.875C36.25 8.03958 36.6528 7.69732 37.0556 7.37602C37.4722 7.69732 37.875 8.06053 38.2569 8.40279Z" fill="#E6F2F9"/>
<path d="M44.9444 22.9034H29.1805C29.2013 22.3586 29.2638 21.7998 29.3263 21.2759H44.8055C44.8611 21.8138 44.9236 22.3586 44.9444 22.9034Z" fill="#32D583"/>
<path d="M35.8542 39.4016H38.2778C37.8958 39.7649 37.4722 40.1281 37.0556 40.4703C36.6528 40.1071 36.2292 39.7649 35.8542 39.4016Z" fill="#E6F2F9"/>
</svg>
