<svg width="32" height="32" viewBox="0 0 32 32" fill="none" xmlns="http://www.w3.org/2000/svg">
<rect width="32" height="32" rx="8" fill="#CB30E0"/>
<path d="M16.1202 16.7805C16.0502 16.7705 15.9602 16.7705 15.8802 16.7805C14.1202 16.7205 12.7202 15.2805 12.7202 13.5105C12.7202 11.7005 14.1802 10.2305 16.0002 10.2305C17.8102 10.2305 19.2802 11.7005 19.2802 13.5105C19.2702 15.2805 17.8802 16.7205 16.1202 16.7805Z" stroke="#FDFDFD" stroke-width="1.5" stroke-linecap="round" stroke-linejoin="round"/>
<path d="M22.7398 23.3805C20.9598 25.0105 18.5998 26.0005 15.9998 26.0005C13.3998 26.0005 11.0398 25.0105 9.25977 23.3805C9.35977 22.4405 9.95977 21.5205 11.0298 20.8005C13.7698 18.9805 18.2498 18.9805 20.9698 20.8005C22.0398 21.5205 22.6398 22.4405 22.7398 23.3805Z" stroke="#FDFDFD" stroke-width="1.5" stroke-linecap="round" stroke-linejoin="round"/>
<path d="M16 26C21.5228 26 26 21.5228 26 16C26 10.4772 21.5228 6 16 6C10.4772 6 6 10.4772 6 16C6 21.5228 10.4772 26 16 26Z" stroke="#FDFDFD" stroke-width="1.5" stroke-linecap="round" stroke-linejoin="round"/>
</svg>
