<svg width="310" height="198" viewBox="0 0 310 198" fill="none" xmlns="http://www.w3.org/2000/svg">
<rect width="310" height="198" rx="24" fill="white"/>
<path d="M27.536 143L24.432 131.8H25.632L28.192 141.624L31.056 131.8H32.304L35.088 141.64L37.664 131.8H38.864L35.712 143H34.448L31.632 133.448L28.768 143H27.536ZM43.092 143.192C42.3453 143.192 41.684 143.016 41.108 142.664C40.5427 142.312 40.0947 141.821 39.764 141.192C39.444 140.552 39.284 139.805 39.284 138.952C39.284 138.099 39.444 137.357 39.764 136.728C40.084 136.099 40.532 135.613 41.108 135.272C41.6947 134.92 42.3667 134.744 43.124 134.744C43.9027 134.744 44.5587 134.92 45.092 135.272C45.636 135.624 46.0467 136.083 46.324 136.648C46.612 137.213 46.756 137.832 46.756 138.504C46.756 138.611 46.756 138.723 46.756 138.84C46.756 138.947 46.7507 139.075 46.74 139.224H40.132V138.28H45.668C45.6467 137.459 45.3907 136.824 44.9 136.376C44.42 135.928 43.812 135.704 43.076 135.704C42.596 135.704 42.148 135.816 41.732 136.04C41.3267 136.253 40.996 136.573 40.74 137C40.4947 137.416 40.372 137.944 40.372 138.584V139C40.372 139.725 40.5 140.328 40.756 140.808C41.012 141.288 41.348 141.645 41.764 141.88C42.1907 142.115 42.6333 142.232 43.092 142.232C43.7 142.232 44.2013 142.099 44.596 141.832C44.9907 141.555 45.2733 141.176 45.444 140.696H46.548C46.4093 141.165 46.1853 141.592 45.876 141.976C45.5773 142.36 45.1933 142.659 44.724 142.872C44.2547 143.085 43.7107 143.192 43.092 143.192ZM55.5714 143.192C54.9207 143.192 54.3767 143.075 53.9394 142.84C53.5127 142.605 53.1927 142.301 52.9794 141.928C52.7767 141.555 52.6754 141.144 52.6754 140.696C52.6754 140.141 52.814 139.672 53.0914 139.288C53.3794 138.904 53.7794 138.616 54.2914 138.424C54.8034 138.232 55.4007 138.136 56.0834 138.136H58.2594C58.2594 137.613 58.1794 137.171 58.0194 136.808C57.8594 136.445 57.6247 136.173 57.3154 135.992C57.006 135.8 56.6167 135.704 56.1474 135.704C55.6034 135.704 55.134 135.843 54.7394 136.12C54.3447 136.397 54.0994 136.803 54.0034 137.336H52.8354C52.8994 136.771 53.0914 136.296 53.4114 135.912C53.742 135.528 54.1474 135.24 54.6274 135.048C55.1074 134.845 55.614 134.744 56.1474 134.744C56.894 134.744 57.502 134.888 57.9714 135.176C58.4407 135.453 58.7927 135.837 59.0274 136.328C59.262 136.819 59.3794 137.384 59.3794 138.024V143H58.3554L58.2914 141.528C58.1954 141.752 58.062 141.965 57.8914 142.168C57.7314 142.371 57.5394 142.547 57.3154 142.696C57.102 142.845 56.8514 142.963 56.5634 143.048C56.2754 143.144 55.9447 143.192 55.5714 143.192ZM55.6994 142.216C56.094 142.216 56.446 142.136 56.7554 141.976C57.0754 141.805 57.3474 141.587 57.5714 141.32C57.7954 141.053 57.966 140.755 58.0834 140.424C58.2007 140.083 58.2594 139.731 58.2594 139.368V139.08H56.1634C55.598 139.08 55.1447 139.149 54.8034 139.288C54.462 139.427 54.2167 139.613 54.0674 139.848C53.918 140.083 53.8434 140.355 53.8434 140.664C53.8434 140.973 53.9127 141.245 54.0514 141.48C54.19 141.704 54.398 141.885 54.6754 142.024C54.9634 142.152 55.3047 142.216 55.6994 142.216ZM61.4954 143V134.936H62.5194L62.5994 136.488C62.77 136.115 62.9994 135.8 63.2874 135.544C63.5754 135.288 63.922 135.091 64.3274 134.952C64.7327 134.813 65.1914 134.744 65.7034 134.744V135.912H65.2714C64.93 135.912 64.5994 135.96 64.2794 136.056C63.9594 136.141 63.6767 136.291 63.4314 136.504C63.186 136.717 62.9887 137.005 62.8394 137.368C62.69 137.731 62.6154 138.184 62.6154 138.728V143H61.4954ZM70.3889 143.192C69.6422 143.192 68.9809 143.016 68.4049 142.664C67.8395 142.312 67.3915 141.821 67.0609 141.192C66.7409 140.552 66.5809 139.805 66.5809 138.952C66.5809 138.099 66.7409 137.357 67.0609 136.728C67.3809 136.099 67.8289 135.613 68.4049 135.272C68.9915 134.92 69.6635 134.744 70.4209 134.744C71.1995 134.744 71.8555 134.92 72.3889 135.272C72.9329 135.624 73.3435 136.083 73.6209 136.648C73.9089 137.213 74.0529 137.832 74.0529 138.504C74.0529 138.611 74.0529 138.723 74.0529 138.84C74.0529 138.947 74.0475 139.075 74.0369 139.224H67.4289V138.28H72.9649C72.9435 137.459 72.6875 136.824 72.1969 136.376C71.7169 135.928 71.1089 135.704 70.3729 135.704C69.8929 135.704 69.4449 135.816 69.0289 136.04C68.6235 136.253 68.2929 136.573 68.0369 137C67.7915 137.416 67.6689 137.944 67.6689 138.584V139C67.6689 139.725 67.7969 140.328 68.0529 140.808C68.3089 141.288 68.6449 141.645 69.0609 141.88C69.4875 142.115 69.9302 142.232 70.3889 142.232C70.9969 142.232 71.4982 142.099 71.8929 141.832C72.2875 141.555 72.5702 141.176 72.7409 140.696H73.8449C73.7062 141.165 73.4822 141.592 73.1729 141.976C72.8742 142.36 72.4902 142.659 72.0209 142.872C71.5515 143.085 71.0075 143.192 70.3889 143.192ZM83.3483 143C82.8896 143 82.4949 142.931 82.1643 142.792C81.8336 142.643 81.5776 142.403 81.3963 142.072C81.2256 141.731 81.1403 141.267 81.1403 140.68V135.896H79.7323V134.936H81.1403L81.3003 133.064H82.2603V134.952H84.6763V135.896H82.2603V140.68C82.2603 141.213 82.3669 141.576 82.5803 141.768C82.7936 141.949 83.1723 142.04 83.7163 142.04H84.5483V143H83.3483ZM86.4173 143V134.936H87.4413L87.5213 136.488C87.6919 136.115 87.9213 135.8 88.2093 135.544C88.4973 135.288 88.8439 135.091 89.2493 134.952C89.6546 134.813 90.1133 134.744 90.6253 134.744V135.912H90.1933C89.8519 135.912 89.5213 135.96 89.2013 136.056C88.8813 136.141 88.5986 136.291 88.3533 136.504C88.1079 136.717 87.9106 137.005 87.7613 137.368C87.6119 137.731 87.5373 138.184 87.5373 138.728V143H86.4173ZM95.1105 143.192C94.5025 143.192 93.9638 143.075 93.4945 142.84C93.0358 142.595 92.6785 142.227 92.4225 141.736C92.1665 141.235 92.0385 140.595 92.0385 139.816V134.936H93.1585V139.688C93.1585 140.541 93.3452 141.176 93.7185 141.592C94.1025 142.008 94.6305 142.216 95.3025 142.216C95.7825 142.216 96.2092 142.104 96.5825 141.88C96.9665 141.656 97.2652 141.325 97.4785 140.888C97.7025 140.44 97.8145 139.896 97.8145 139.256V134.936H98.9345V143H97.9105L97.8465 141.56C97.5905 142.083 97.2172 142.488 96.7265 142.776C96.2465 143.053 95.7078 143.192 95.1105 143.192ZM104.174 143.192C103.534 143.192 102.969 143.085 102.478 142.872C101.998 142.659 101.609 142.355 101.31 141.96C101.022 141.555 100.846 141.075 100.782 140.52H101.934C101.998 140.829 102.121 141.112 102.302 141.368C102.494 141.624 102.75 141.832 103.07 141.992C103.39 142.141 103.769 142.216 104.206 142.216C104.611 142.216 104.942 142.157 105.198 142.04C105.465 141.912 105.662 141.747 105.79 141.544C105.929 141.331 105.998 141.096 105.998 140.84C105.998 140.488 105.913 140.216 105.742 140.024C105.582 139.821 105.347 139.672 105.038 139.576C104.729 139.48 104.355 139.389 103.918 139.304C103.555 139.24 103.209 139.155 102.878 139.048C102.547 138.941 102.249 138.803 101.982 138.632C101.726 138.461 101.523 138.248 101.374 137.992C101.225 137.725 101.15 137.416 101.15 137.064C101.15 136.605 101.262 136.205 101.486 135.864C101.721 135.512 102.051 135.24 102.478 135.048C102.905 134.845 103.406 134.744 103.982 134.744C104.803 134.744 105.475 134.952 105.998 135.368C106.521 135.773 106.825 136.371 106.91 137.16H105.79C105.747 136.723 105.566 136.376 105.246 136.12C104.926 135.864 104.494 135.736 103.95 135.736C103.417 135.736 103.006 135.848 102.718 136.072C102.441 136.285 102.302 136.579 102.302 136.952C102.302 137.187 102.377 137.389 102.526 137.56C102.675 137.731 102.894 137.88 103.182 138.008C103.481 138.125 103.843 138.227 104.27 138.312C104.782 138.408 105.251 138.536 105.678 138.696C106.115 138.845 106.467 139.08 106.734 139.4C107.011 139.709 107.15 140.152 107.15 140.728C107.161 141.208 107.043 141.635 106.798 142.008C106.553 142.381 106.206 142.675 105.758 142.888C105.31 143.091 104.782 143.192 104.174 143.192ZM111.801 143C111.343 143 110.948 142.931 110.617 142.792C110.287 142.643 110.031 142.403 109.849 142.072C109.679 141.731 109.593 141.267 109.593 140.68V135.896H108.185V134.936H109.593L109.753 133.064H110.713V134.952H113.129V135.896H110.713V140.68C110.713 141.213 110.82 141.576 111.033 141.768C111.247 141.949 111.625 142.04 112.169 142.04H113.001V143H111.801ZM118.108 143.192C117.361 143.192 116.7 143.016 116.124 142.664C115.558 142.312 115.11 141.821 114.78 141.192C114.46 140.552 114.3 139.805 114.3 138.952C114.3 138.099 114.46 137.357 114.78 136.728C115.1 136.099 115.548 135.613 116.124 135.272C116.71 134.92 117.382 134.744 118.14 134.744C118.918 134.744 119.574 134.92 120.108 135.272C120.652 135.624 121.062 136.083 121.34 136.648C121.628 137.213 121.772 137.832 121.772 138.504C121.772 138.611 121.772 138.723 121.772 138.84C121.772 138.947 121.766 139.075 121.756 139.224H115.148V138.28H120.684C120.662 137.459 120.406 136.824 119.916 136.376C119.436 135.928 118.828 135.704 118.092 135.704C117.612 135.704 117.164 135.816 116.748 136.04C116.342 136.253 116.012 136.573 115.756 137C115.51 137.416 115.388 137.944 115.388 138.584V139C115.388 139.725 115.516 140.328 115.772 140.808C116.028 141.288 116.364 141.645 116.78 141.88C117.206 142.115 117.649 142.232 118.108 142.232C118.716 142.232 119.217 142.099 119.612 141.832C120.006 141.555 120.289 141.176 120.46 140.696H121.564C121.425 141.165 121.201 141.592 120.892 141.976C120.593 142.36 120.209 142.659 119.74 142.872C119.27 143.085 118.726 143.192 118.108 143.192ZM127.125 143.192C126.346 143.192 125.663 143.011 125.077 142.648C124.501 142.275 124.053 141.768 123.733 141.128C123.413 140.488 123.253 139.763 123.253 138.952C123.253 138.141 123.413 137.421 123.733 136.792C124.053 136.152 124.506 135.651 125.093 135.288C125.679 134.925 126.362 134.744 127.141 134.744C127.823 134.744 128.421 134.893 128.933 135.192C129.455 135.48 129.855 135.891 130.133 136.424V131.48H131.253V143H130.229L130.133 141.544C129.962 141.821 129.738 142.088 129.461 142.344C129.194 142.6 128.863 142.808 128.469 142.968C128.085 143.117 127.637 143.192 127.125 143.192ZM127.221 142.216C127.786 142.216 128.277 142.083 128.693 141.816C129.119 141.549 129.45 141.171 129.685 140.68C129.93 140.189 130.053 139.619 130.053 138.968C130.053 138.317 129.93 137.747 129.685 137.256C129.45 136.765 129.119 136.387 128.693 136.12C128.277 135.853 127.786 135.72 127.221 135.72C126.666 135.72 126.175 135.853 125.749 136.12C125.322 136.387 124.986 136.765 124.741 137.256C124.506 137.736 124.389 138.307 124.389 138.968C124.389 139.629 124.511 140.205 124.757 140.696C125.002 141.176 125.338 141.549 125.765 141.816C126.191 142.083 126.677 142.216 127.221 142.216ZM142.045 143.192C141.576 143.192 141.144 143.123 140.749 142.984C140.365 142.835 140.029 142.637 139.741 142.392C139.453 142.136 139.224 141.848 139.053 141.528L138.957 143H137.933V131.48H139.053V136.392C139.32 135.933 139.704 135.544 140.205 135.224C140.706 134.904 141.32 134.744 142.045 134.744C142.834 134.744 143.522 134.931 144.109 135.304C144.696 135.667 145.144 136.168 145.453 136.808C145.773 137.437 145.933 138.157 145.933 138.968C145.933 139.779 145.773 140.504 145.453 141.144C145.133 141.784 144.68 142.285 144.093 142.648C143.517 143.011 142.834 143.192 142.045 143.192ZM141.965 142.216C142.53 142.216 143.021 142.083 143.437 141.816C143.853 141.549 144.184 141.171 144.429 140.68C144.674 140.189 144.797 139.619 144.797 138.968C144.797 138.307 144.674 137.736 144.429 137.256C144.184 136.765 143.848 136.387 143.421 136.12C143.005 135.853 142.52 135.72 141.965 135.72C141.41 135.72 140.914 135.853 140.477 136.12C140.05 136.387 139.714 136.765 139.469 137.256C139.234 137.747 139.117 138.317 139.117 138.968C139.117 139.629 139.234 140.205 139.469 140.696C139.714 141.176 140.05 141.549 140.477 141.816C140.914 142.083 141.41 142.216 141.965 142.216ZM148.077 146.52L150.061 142.104H149.629L146.445 134.936H147.661L150.413 141.336L153.309 134.936H154.461L149.245 146.52H148.077ZM160.339 146.52V134.936H161.363L161.459 136.392C161.63 136.104 161.854 135.837 162.131 135.592C162.408 135.336 162.739 135.133 163.123 134.984C163.518 134.824 163.966 134.744 164.467 134.744C165.246 134.744 165.923 134.931 166.499 135.304C167.086 135.677 167.539 136.184 167.859 136.824C168.179 137.453 168.339 138.173 168.339 138.984C168.339 139.795 168.174 140.52 167.843 141.16C167.523 141.789 167.075 142.285 166.499 142.648C165.923 143.011 165.24 143.192 164.451 143.192C163.768 143.192 163.166 143.048 162.643 142.76C162.131 142.461 161.736 142.045 161.459 141.512V146.52H160.339ZM164.371 142.216C164.926 142.216 165.411 142.083 165.827 141.816C166.254 141.549 166.59 141.176 166.835 140.696C167.08 140.205 167.203 139.629 167.203 138.968C167.203 138.317 167.08 137.747 166.835 137.256C166.59 136.765 166.254 136.387 165.827 136.12C165.411 135.853 164.926 135.72 164.371 135.72C163.816 135.72 163.32 135.853 162.883 136.12C162.456 136.387 162.12 136.765 161.875 137.256C161.64 137.736 161.523 138.307 161.523 138.968C161.523 139.619 161.64 140.189 161.875 140.68C162.12 141.171 162.456 141.549 162.883 141.816C163.32 142.083 163.816 142.216 164.371 142.216ZM170.261 143V134.936H171.285L171.365 136.488C171.536 136.115 171.765 135.8 172.053 135.544C172.341 135.288 172.688 135.091 173.093 134.952C173.498 134.813 173.957 134.744 174.469 134.744V135.912H174.037C173.696 135.912 173.365 135.96 173.045 136.056C172.725 136.141 172.442 136.291 172.197 136.504C171.952 136.717 171.754 137.005 171.605 137.368C171.456 137.731 171.381 138.184 171.381 138.728V143H170.261ZM179.251 143.192C178.515 143.192 177.848 143.021 177.251 142.68C176.664 142.328 176.2 141.837 175.859 141.208C175.517 140.568 175.347 139.827 175.347 138.984C175.347 138.109 175.517 137.357 175.859 136.728C176.211 136.099 176.685 135.613 177.283 135.272C177.88 134.92 178.547 134.744 179.283 134.744C180.051 134.744 180.728 134.92 181.315 135.272C181.901 135.613 182.365 136.099 182.707 136.728C183.048 137.357 183.219 138.109 183.219 138.984C183.219 139.827 183.043 140.568 182.691 141.208C182.349 141.837 181.88 142.328 181.283 142.68C180.696 143.021 180.019 143.192 179.251 143.192ZM179.266 142.232C179.768 142.232 180.227 142.109 180.643 141.864C181.069 141.619 181.411 141.256 181.667 140.776C181.933 140.285 182.067 139.683 182.067 138.968C182.067 138.243 181.939 137.64 181.683 137.16C181.427 136.68 181.085 136.323 180.659 136.088C180.243 135.843 179.784 135.72 179.283 135.72C178.803 135.72 178.349 135.843 177.923 136.088C177.496 136.333 177.149 136.696 176.883 137.176C176.627 137.645 176.499 138.243 176.499 138.968C176.499 139.683 176.627 140.285 176.883 140.776C177.139 141.256 177.475 141.619 177.891 141.864C178.317 142.109 178.776 142.232 179.266 142.232ZM185.616 143V133.544C185.616 133.075 185.691 132.691 185.84 132.392C186 132.083 186.235 131.853 186.544 131.704C186.853 131.555 187.243 131.48 187.712 131.48H188.624V132.44H187.904C187.477 132.44 187.173 132.525 186.992 132.696C186.821 132.867 186.736 133.165 186.736 133.592V143H185.616ZM184.368 135.896V134.936H188.832V135.896H184.368ZM193.608 143.192C192.861 143.192 192.2 143.016 191.624 142.664C191.058 142.312 190.61 141.821 190.28 141.192C189.96 140.552 189.8 139.805 189.8 138.952C189.8 138.099 189.96 137.357 190.28 136.728C190.6 136.099 191.048 135.613 191.624 135.272C192.21 134.92 192.882 134.744 193.64 134.744C194.418 134.744 195.074 134.92 195.608 135.272C196.152 135.624 196.562 136.083 196.84 136.648C197.128 137.213 197.272 137.832 197.272 138.504C197.272 138.611 197.272 138.723 197.272 138.84C197.272 138.947 197.266 139.075 197.256 139.224H190.648V138.28H196.184C196.162 137.459 195.906 136.824 195.416 136.376C194.936 135.928 194.328 135.704 193.592 135.704C193.112 135.704 192.664 135.816 192.248 136.04C191.842 136.253 191.512 136.573 191.256 137C191.01 137.416 190.888 137.944 190.888 138.584V139C190.888 139.725 191.016 140.328 191.272 140.808C191.528 141.288 191.864 141.645 192.28 141.88C192.706 142.115 193.149 142.232 193.608 142.232C194.216 142.232 194.717 142.099 195.112 141.832C195.506 141.555 195.789 141.176 195.96 140.696H197.064C196.925 141.165 196.701 141.592 196.392 141.976C196.093 142.36 195.709 142.659 195.24 142.872C194.77 143.085 194.226 143.192 193.608 143.192ZM202.065 143.192C201.425 143.192 200.859 143.085 200.369 142.872C199.889 142.659 199.499 142.355 199.201 141.96C198.913 141.555 198.737 141.075 198.673 140.52H199.825C199.889 140.829 200.011 141.112 200.193 141.368C200.385 141.624 200.641 141.832 200.961 141.992C201.281 142.141 201.659 142.216 202.097 142.216C202.502 142.216 202.833 142.157 203.089 142.04C203.355 141.912 203.553 141.747 203.681 141.544C203.819 141.331 203.889 141.096 203.889 140.84C203.889 140.488 203.803 140.216 203.633 140.024C203.473 139.821 203.238 139.672 202.929 139.576C202.619 139.48 202.246 139.389 201.809 139.304C201.446 139.24 201.099 139.155 200.769 139.048C200.438 138.941 200.139 138.803 199.873 138.632C199.617 138.461 199.414 138.248 199.265 137.992C199.115 137.725 199.041 137.416 199.041 137.064C199.041 136.605 199.153 136.205 199.377 135.864C199.611 135.512 199.942 135.24 200.369 135.048C200.795 134.845 201.297 134.744 201.873 134.744C202.694 134.744 203.366 134.952 203.889 135.368C204.411 135.773 204.715 136.371 204.801 137.16H203.681C203.638 136.723 203.457 136.376 203.137 136.12C202.817 135.864 202.385 135.736 201.841 135.736C201.307 135.736 200.897 135.848 200.609 136.072C200.331 136.285 200.193 136.579 200.193 136.952C200.193 137.187 200.267 137.389 200.417 137.56C200.566 137.731 200.785 137.88 201.073 138.008C201.371 138.125 201.734 138.227 202.161 138.312C202.673 138.408 203.142 138.536 203.569 138.696C204.006 138.845 204.358 139.08 204.625 139.4C204.902 139.709 205.041 140.152 205.041 140.728C205.051 141.208 204.934 141.635 204.689 142.008C204.443 142.381 204.097 142.675 203.649 142.888C203.201 143.091 202.673 143.192 202.065 143.192ZM209.987 143.192C209.347 143.192 208.781 143.085 208.291 142.872C207.811 142.659 207.421 142.355 207.123 141.96C206.835 141.555 206.659 141.075 206.595 140.52H207.747C207.811 140.829 207.933 141.112 208.115 141.368C208.307 141.624 208.563 141.832 208.883 141.992C209.203 142.141 209.581 142.216 210.019 142.216C210.424 142.216 210.755 142.157 211.011 142.04C211.277 141.912 211.475 141.747 211.603 141.544C211.741 141.331 211.811 141.096 211.811 140.84C211.811 140.488 211.725 140.216 211.555 140.024C211.395 139.821 211.16 139.672 210.851 139.576C210.541 139.48 210.168 139.389 209.731 139.304C209.368 139.24 209.021 139.155 208.691 139.048C208.36 138.941 208.061 138.803 207.795 138.632C207.539 138.461 207.336 138.248 207.187 137.992C207.037 137.725 206.963 137.416 206.963 137.064C206.963 136.605 207.075 136.205 207.299 135.864C207.533 135.512 207.864 135.24 208.291 135.048C208.717 134.845 209.219 134.744 209.795 134.744C210.616 134.744 211.288 134.952 211.811 135.368C212.333 135.773 212.637 136.371 212.723 137.16H211.603C211.56 136.723 211.379 136.376 211.059 136.12C210.739 135.864 210.307 135.736 209.763 135.736C209.229 135.736 208.819 135.848 208.531 136.072C208.253 136.285 208.115 136.579 208.115 136.952C208.115 137.187 208.189 137.389 208.339 137.56C208.488 137.731 208.707 137.88 208.995 138.008C209.293 138.125 209.656 138.227 210.083 138.312C210.595 138.408 211.064 138.536 211.491 138.696C211.928 138.845 212.28 139.08 212.547 139.4C212.824 139.709 212.963 140.152 212.963 140.728C212.973 141.208 212.856 141.635 212.611 142.008C212.365 142.381 212.019 142.675 211.571 142.888C211.123 143.091 210.595 143.192 209.987 143.192ZM215.109 143V134.936H216.213V143H215.109ZM215.669 133.032C215.445 133.032 215.253 132.957 215.093 132.808C214.933 132.648 214.853 132.451 214.853 132.216C214.853 131.971 214.927 131.779 215.077 131.64C215.237 131.491 215.429 131.416 215.653 131.416C215.877 131.416 216.069 131.491 216.229 131.64C216.389 131.779 216.469 131.971 216.469 132.216C216.469 132.451 216.389 132.648 216.229 132.808C216.079 132.957 215.893 133.032 215.669 133.032ZM222.204 143.192C221.468 143.192 220.801 143.021 220.204 142.68C219.617 142.328 219.153 141.837 218.812 141.208C218.47 140.568 218.3 139.827 218.3 138.984C218.3 138.109 218.47 137.357 218.812 136.728C219.164 136.099 219.638 135.613 220.236 135.272C220.833 134.92 221.5 134.744 222.236 134.744C223.004 134.744 223.681 134.92 224.268 135.272C224.854 135.613 225.318 136.099 225.66 136.728C226.001 137.357 226.172 138.109 226.172 138.984C226.172 139.827 225.996 140.568 225.644 141.208C225.302 141.837 224.833 142.328 224.236 142.68C223.649 143.021 222.972 143.192 222.204 143.192ZM222.22 142.232C222.721 142.232 223.18 142.109 223.596 141.864C224.022 141.619 224.364 141.256 224.62 140.776C224.886 140.285 225.02 139.683 225.02 138.968C225.02 138.243 224.892 137.64 224.636 137.16C224.38 136.68 224.038 136.323 223.612 136.088C223.196 135.843 222.737 135.72 222.236 135.72C221.756 135.72 221.302 135.843 220.876 136.088C220.449 136.333 220.102 136.696 219.836 137.176C219.58 137.645 219.452 138.243 219.452 138.968C219.452 139.683 219.58 140.285 219.836 140.776C220.092 141.256 220.428 141.619 220.844 141.864C221.27 142.109 221.729 142.232 222.22 142.232ZM228.089 143V134.936H229.113L229.177 136.376C229.433 135.864 229.801 135.464 230.281 135.176C230.772 134.888 231.316 134.744 231.913 134.744C232.532 134.744 233.07 134.867 233.529 135.112C233.988 135.357 234.345 135.731 234.601 136.232C234.857 136.723 234.985 137.352 234.985 138.12V143H233.865V138.248C233.865 137.395 233.678 136.76 233.305 136.344C232.932 135.928 232.398 135.72 231.705 135.72C231.236 135.72 230.809 135.837 230.425 136.072C230.052 136.296 229.753 136.627 229.529 137.064C229.316 137.501 229.209 138.04 229.209 138.68V143H228.089ZM239.681 143.192C239.03 143.192 238.486 143.075 238.049 142.84C237.622 142.605 237.302 142.301 237.089 141.928C236.886 141.555 236.785 141.144 236.785 140.696C236.785 140.141 236.923 139.672 237.201 139.288C237.489 138.904 237.889 138.616 238.401 138.424C238.913 138.232 239.51 138.136 240.193 138.136H242.369C242.369 137.613 242.289 137.171 242.129 136.808C241.969 136.445 241.734 136.173 241.425 135.992C241.115 135.8 240.726 135.704 240.257 135.704C239.713 135.704 239.243 135.843 238.849 136.12C238.454 136.397 238.209 136.803 238.113 137.336H236.945C237.009 136.771 237.201 136.296 237.521 135.912C237.851 135.528 238.257 135.24 238.737 135.048C239.217 134.845 239.723 134.744 240.257 134.744C241.003 134.744 241.611 134.888 242.081 135.176C242.55 135.453 242.902 135.837 243.137 136.328C243.371 136.819 243.489 137.384 243.489 138.024V143H242.465L242.401 141.528C242.305 141.752 242.171 141.965 242.001 142.168C241.841 142.371 241.649 142.547 241.425 142.696C241.211 142.845 240.961 142.963 240.673 143.048C240.385 143.144 240.054 143.192 239.681 143.192ZM239.809 142.216C240.203 142.216 240.555 142.136 240.865 141.976C241.185 141.805 241.457 141.587 241.681 141.32C241.905 141.053 242.075 140.755 242.193 140.424C242.31 140.083 242.369 139.731 242.369 139.368V139.08H240.273C239.707 139.08 239.254 139.149 238.913 139.288C238.571 139.427 238.326 139.613 238.177 139.848C238.027 140.083 237.953 140.355 237.953 140.664C237.953 140.973 238.022 141.245 238.161 141.48C238.299 141.704 238.507 141.885 238.785 142.024C239.073 142.152 239.414 142.216 239.809 142.216ZM245.605 143V131.48H246.725V143H245.605ZM251.955 143.192C251.315 143.192 250.75 143.085 250.259 142.872C249.779 142.659 249.39 142.355 249.091 141.96C248.803 141.555 248.627 141.075 248.563 140.52H249.715C249.779 140.829 249.902 141.112 250.083 141.368C250.275 141.624 250.531 141.832 250.851 141.992C251.171 142.141 251.55 142.216 251.987 142.216C252.393 142.216 252.723 142.157 252.979 142.04C253.246 141.912 253.443 141.747 253.571 141.544C253.71 141.331 253.779 141.096 253.779 140.84C253.779 140.488 253.694 140.216 253.523 140.024C253.363 139.821 253.129 139.672 252.819 139.576C252.51 139.48 252.137 139.389 251.699 139.304C251.337 139.24 250.99 139.155 250.659 139.048C250.329 138.941 250.03 138.803 249.763 138.632C249.507 138.461 249.305 138.248 249.155 137.992C249.006 137.725 248.931 137.416 248.931 137.064C248.931 136.605 249.043 136.205 249.267 135.864C249.502 135.512 249.833 135.24 250.259 135.048C250.686 134.845 251.187 134.744 251.763 134.744C252.585 134.744 253.257 134.952 253.779 135.368C254.302 135.773 254.606 136.371 254.691 137.16H253.571C253.529 136.723 253.347 136.376 253.027 136.12C252.707 135.864 252.275 135.736 251.731 135.736C251.198 135.736 250.787 135.848 250.499 136.072C250.222 136.285 250.083 136.579 250.083 136.952C250.083 137.187 250.158 137.389 250.307 137.56C250.457 137.731 250.675 137.88 250.963 138.008C251.262 138.125 251.625 138.227 252.051 138.312C252.563 138.408 253.033 138.536 253.459 138.696C253.897 138.845 254.249 139.08 254.515 139.4C254.793 139.709 254.931 140.152 254.931 140.728C254.942 141.208 254.825 141.635 254.579 142.008C254.334 142.381 253.987 142.675 253.539 142.888C253.091 143.091 252.563 143.192 251.955 143.192ZM27.712 167.192C27.0613 167.192 26.5173 167.075 26.08 166.84C25.6533 166.605 25.3333 166.301 25.12 165.928C24.9173 165.555 24.816 165.144 24.816 164.696C24.816 164.141 24.9547 163.672 25.232 163.288C25.52 162.904 25.92 162.616 26.432 162.424C26.944 162.232 27.5413 162.136 28.224 162.136H30.4C30.4 161.613 30.32 161.171 30.16 160.808C30 160.445 29.7653 160.173 29.456 159.992C29.1467 159.8 28.7573 159.704 28.288 159.704C27.744 159.704 27.2747 159.843 26.88 160.12C26.4853 160.397 26.24 160.803 26.144 161.336H24.976C25.04 160.771 25.232 160.296 25.552 159.912C25.8827 159.528 26.288 159.24 26.768 159.048C27.248 158.845 27.7547 158.744 28.288 158.744C29.0347 158.744 29.6427 158.888 30.112 159.176C30.5813 159.453 30.9333 159.837 31.168 160.328C31.4027 160.819 31.52 161.384 31.52 162.024V167H30.496L30.432 165.528C30.336 165.752 30.2027 165.965 30.032 166.168C29.872 166.371 29.68 166.547 29.456 166.696C29.2427 166.845 28.992 166.963 28.704 167.048C28.416 167.144 28.0853 167.192 27.712 167.192ZM27.84 166.216C28.2347 166.216 28.5867 166.136 28.896 165.976C29.216 165.805 29.488 165.587 29.712 165.32C29.936 165.053 30.1067 164.755 30.224 164.424C30.3413 164.083 30.4 163.731 30.4 163.368V163.08H28.304C27.7387 163.08 27.2853 163.149 26.944 163.288C26.6027 163.427 26.3573 163.613 26.208 163.848C26.0587 164.083 25.984 164.355 25.984 164.664C25.984 164.973 26.0533 165.245 26.192 165.48C26.3307 165.704 26.5387 165.885 26.816 166.024C27.104 166.152 27.4453 166.216 27.84 166.216ZM33.636 167V155.48H34.756V167H33.636ZM37.0266 167V155.48H38.1466V167H37.0266ZM48.3755 167.192C47.6395 167.192 46.9728 167.021 46.3755 166.68C45.7888 166.328 45.3248 165.837 44.9835 165.208C44.6422 164.568 44.4715 163.827 44.4715 162.984C44.4715 162.109 44.6422 161.357 44.9835 160.728C45.3355 160.099 45.8102 159.613 46.4075 159.272C47.0048 158.92 47.6715 158.744 48.4075 158.744C49.1755 158.744 49.8528 158.92 50.4395 159.272C51.0262 159.613 51.4902 160.099 51.8315 160.728C52.1728 161.357 52.3435 162.109 52.3435 162.984C52.3435 163.827 52.1675 164.568 51.8155 165.208C51.4742 165.837 51.0048 166.328 50.4075 166.68C49.8208 167.021 49.1435 167.192 48.3755 167.192ZM48.3915 166.232C48.8928 166.232 49.3515 166.109 49.7675 165.864C50.1942 165.619 50.5355 165.256 50.7915 164.776C51.0582 164.285 51.1915 163.683 51.1915 162.968C51.1915 162.243 51.0635 161.64 50.8075 161.16C50.5515 160.68 50.2102 160.323 49.7835 160.088C49.3675 159.843 48.9088 159.72 48.4075 159.72C47.9275 159.72 47.4742 159.843 47.0475 160.088C46.6208 160.333 46.2742 160.696 46.0075 161.176C45.7515 161.645 45.6235 162.243 45.6235 162.968C45.6235 163.683 45.7515 164.285 46.0075 164.776C46.2635 165.256 46.5995 165.619 47.0155 165.864C47.4422 166.109 47.9008 166.232 48.3915 166.232ZM56.2071 167L53.1351 158.936H54.3031L56.8631 165.912L59.4231 158.936H60.5751L57.4871 167H56.2071ZM65.1545 167.192C64.4078 167.192 63.7465 167.016 63.1705 166.664C62.6052 166.312 62.1572 165.821 61.8265 165.192C61.5065 164.552 61.3465 163.805 61.3465 162.952C61.3465 162.099 61.5065 161.357 61.8265 160.728C62.1465 160.099 62.5945 159.613 63.1705 159.272C63.7572 158.92 64.4292 158.744 65.1865 158.744C65.9652 158.744 66.6212 158.92 67.1545 159.272C67.6985 159.624 68.1092 160.083 68.3865 160.648C68.6745 161.213 68.8185 161.832 68.8185 162.504C68.8185 162.611 68.8185 162.723 68.8185 162.84C68.8185 162.947 68.8132 163.075 68.8025 163.224H62.1945V162.28H67.7305C67.7092 161.459 67.4532 160.824 66.9625 160.376C66.4825 159.928 65.8745 159.704 65.1385 159.704C64.6585 159.704 64.2105 159.816 63.7945 160.04C63.3892 160.253 63.0585 160.573 62.8025 161C62.5572 161.416 62.4345 161.944 62.4345 162.584V163C62.4345 163.725 62.5625 164.328 62.8185 164.808C63.0745 165.288 63.4105 165.645 63.8265 165.88C64.2532 166.115 64.6958 166.232 65.1545 166.232C65.7625 166.232 66.2638 166.099 66.6585 165.832C67.0532 165.555 67.3358 165.176 67.5065 164.696H68.6105C68.4718 165.165 68.2478 165.592 67.9385 165.976C67.6398 166.36 67.2558 166.659 66.7865 166.872C66.3172 167.085 65.7732 167.192 65.1545 167.192ZM70.6516 167V158.936H71.6756L71.7556 160.488C71.9263 160.115 72.1556 159.8 72.4436 159.544C72.7316 159.288 73.0783 159.091 73.4836 158.952C73.889 158.813 74.3476 158.744 74.8596 158.744V159.912H74.4276C74.0863 159.912 73.7556 159.96 73.4356 160.056C73.1156 160.141 72.833 160.291 72.5876 160.504C72.3423 160.717 72.145 161.005 71.9956 161.368C71.8463 161.731 71.7716 162.184 71.7716 162.728V167H70.6516ZM83.8951 167C83.4365 167 83.0418 166.931 82.7111 166.792C82.3805 166.643 82.1245 166.403 81.9431 166.072C81.7725 165.731 81.6871 165.267 81.6871 164.68V159.896H80.2791V158.936H81.6871L81.8471 157.064H82.8071V158.952H85.2231V159.896H82.8071V164.68C82.8071 165.213 82.9138 165.576 83.1271 165.768C83.3405 165.949 83.7191 166.04 84.2631 166.04H85.0951V167H83.8951ZM86.9641 167V155.48H88.0841V160.376C88.3615 159.864 88.7455 159.464 89.2361 159.176C89.7268 158.888 90.2655 158.744 90.8521 158.744C91.4601 158.744 91.9881 158.867 92.4361 159.112C92.8948 159.357 93.2468 159.731 93.4921 160.232C93.7481 160.733 93.8761 161.373 93.8761 162.152V167H92.7721V162.28C92.7721 161.416 92.5908 160.776 92.2281 160.36C91.8761 159.933 91.3535 159.72 90.6601 159.72C90.1801 159.72 89.7428 159.837 89.3481 160.072C88.9641 160.307 88.6548 160.648 88.4201 161.096C88.1961 161.533 88.0841 162.077 88.0841 162.728V167H86.9641ZM99.4514 167.192C98.7047 167.192 98.0434 167.016 97.4674 166.664C96.902 166.312 96.454 165.821 96.1234 165.192C95.8034 164.552 95.6434 163.805 95.6434 162.952C95.6434 162.099 95.8034 161.357 96.1234 160.728C96.4434 160.099 96.8914 159.613 97.4674 159.272C98.054 158.92 98.726 158.744 99.4834 158.744C100.262 158.744 100.918 158.92 101.451 159.272C101.995 159.624 102.406 160.083 102.683 160.648C102.971 161.213 103.115 161.832 103.115 162.504C103.115 162.611 103.115 162.723 103.115 162.84C103.115 162.947 103.11 163.075 103.099 163.224H96.4914V162.28H102.027C102.006 161.459 101.75 160.824 101.259 160.376C100.779 159.928 100.171 159.704 99.4354 159.704C98.9554 159.704 98.5074 159.816 98.0914 160.04C97.686 160.253 97.3554 160.573 97.0994 161C96.854 161.416 96.7314 161.944 96.7314 162.584V163C96.7314 163.725 96.8594 164.328 97.1154 164.808C97.3714 165.288 97.7074 165.645 98.1234 165.88C98.55 166.115 98.9927 166.232 99.4514 166.232C100.059 166.232 100.561 166.099 100.955 165.832C101.35 165.555 101.633 165.176 101.803 164.696H102.907C102.769 165.165 102.545 165.592 102.235 165.976C101.937 166.36 101.553 166.659 101.083 166.872C100.614 167.085 100.07 167.192 99.4514 167.192ZM111.019 167L108.651 158.936H109.787L111.707 165.832H111.483L113.563 158.936H114.843L116.923 165.832H116.699L118.619 158.936H119.755L117.387 167H116.251L114.091 159.784H114.315L112.155 167H111.019ZM124.563 167.192C123.827 167.192 123.16 167.021 122.563 166.68C121.976 166.328 121.512 165.837 121.171 165.208C120.83 164.568 120.659 163.827 120.659 162.984C120.659 162.109 120.83 161.357 121.171 160.728C121.523 160.099 121.998 159.613 122.595 159.272C123.192 158.92 123.859 158.744 124.595 158.744C125.363 158.744 126.04 158.92 126.627 159.272C127.214 159.613 127.678 160.099 128.019 160.728C128.36 161.357 128.531 162.109 128.531 162.984C128.531 163.827 128.355 164.568 128.003 165.208C127.662 165.837 127.192 166.328 126.595 166.68C126.008 167.021 125.331 167.192 124.563 167.192ZM124.579 166.232C125.08 166.232 125.539 166.109 125.955 165.864C126.382 165.619 126.723 165.256 126.979 164.776C127.246 164.285 127.379 163.683 127.379 162.968C127.379 162.243 127.251 161.64 126.995 161.16C126.739 160.68 126.398 160.323 125.971 160.088C125.555 159.843 125.096 159.72 124.595 159.72C124.115 159.72 123.662 159.843 123.235 160.088C122.808 160.333 122.462 160.696 122.195 161.176C121.939 161.645 121.811 162.243 121.811 162.968C121.811 163.683 121.939 164.285 122.195 164.776C122.451 165.256 122.787 165.619 123.203 165.864C123.63 166.109 124.088 166.232 124.579 166.232ZM130.449 167V158.936H131.473L131.553 160.488C131.723 160.115 131.953 159.8 132.241 159.544C132.529 159.288 132.875 159.091 133.281 158.952C133.686 158.813 134.145 158.744 134.657 158.744V159.912H134.225C133.883 159.912 133.553 159.96 133.233 160.056C132.913 160.141 132.63 160.291 132.385 160.504C132.139 160.717 131.942 161.005 131.793 161.368C131.643 161.731 131.569 162.184 131.569 162.728V167H130.449ZM136.23 167V155.48H137.35V167H136.23ZM143.14 167.192C142.362 167.192 141.679 167.011 141.092 166.648C140.516 166.275 140.068 165.768 139.748 165.128C139.428 164.488 139.268 163.763 139.268 162.952C139.268 162.141 139.428 161.421 139.748 160.792C140.068 160.152 140.522 159.651 141.108 159.288C141.695 158.925 142.378 158.744 143.156 158.744C143.839 158.744 144.436 158.893 144.948 159.192C145.471 159.48 145.871 159.891 146.148 160.424V155.48H147.268V167H146.244L146.148 165.544C145.978 165.821 145.754 166.088 145.476 166.344C145.21 166.6 144.879 166.808 144.484 166.968C144.1 167.117 143.652 167.192 143.14 167.192ZM143.236 166.216C143.802 166.216 144.292 166.083 144.708 165.816C145.135 165.549 145.466 165.171 145.7 164.68C145.946 164.189 146.068 163.619 146.068 162.968C146.068 162.317 145.946 161.747 145.7 161.256C145.466 160.765 145.135 160.387 144.708 160.12C144.292 159.853 143.802 159.72 143.236 159.72C142.682 159.72 142.191 159.853 141.764 160.12C141.338 160.387 141.002 160.765 140.756 161.256C140.522 161.736 140.404 162.307 140.404 162.968C140.404 163.629 140.527 164.205 140.772 164.696C141.018 165.176 141.354 165.549 141.78 165.816C142.207 166.083 142.692 166.216 143.236 166.216Z" fill="#414651"/>
<path d="M38.076 58V52.852H25.44V50.044L37.5 32.8H41.64V49.72H45.24V52.852H41.64V58H38.076ZM29.364 49.72H38.292V36.76L29.364 49.72ZM49.5274 58.18C48.8314 58.18 48.2554 57.964 47.7994 57.532C47.3674 57.076 47.1514 56.536 47.1514 55.912C47.1514 55.264 47.3674 54.724 47.7994 54.292C48.2554 53.836 48.8314 53.608 49.5274 53.608C50.2234 53.608 50.7874 53.836 51.2194 54.292C51.6514 54.724 51.8674 55.264 51.8674 55.912C51.8674 56.536 51.6514 57.076 51.2194 57.532C50.7874 57.964 50.2234 58.18 49.5274 58.18ZM63.9577 58.432C62.1817 58.432 60.6577 58.12 59.3857 57.496C58.1137 56.848 57.1057 55.984 56.3617 54.904C55.6177 53.8 55.1617 52.564 54.9937 51.196H58.5217C58.7617 52.42 59.3617 53.428 60.3217 54.22C61.2818 54.988 62.4938 55.372 63.9577 55.372C65.0617 55.372 66.0097 55.108 66.8017 54.58C67.5938 54.052 68.2058 53.344 68.6378 52.456C69.0698 51.568 69.2857 50.584 69.2857 49.504C69.2857 48.352 69.0577 47.356 68.6018 46.516C68.1697 45.652 67.5577 44.98 66.7658 44.5C65.9978 44.02 65.0977 43.78 64.0657 43.78C62.8177 43.78 61.7377 44.068 60.8257 44.644C59.9377 45.196 59.2897 45.904 58.8817 46.768H55.3897L57.4777 32.8H71.0498V35.932H60.2497L58.9177 42.988C59.4937 42.34 60.2617 41.812 61.2217 41.404C62.2057 40.996 63.3218 40.792 64.5698 40.792C65.8417 40.792 66.9817 41.02 67.9898 41.476C68.9978 41.908 69.8498 42.52 70.5457 43.312C71.2657 44.104 71.8058 45.028 72.1658 46.084C72.5498 47.14 72.7418 48.256 72.7418 49.432C72.7418 50.704 72.5378 51.88 72.1297 52.96C71.7218 54.04 71.1338 55 70.3657 55.84C69.6218 56.656 68.6978 57.292 67.5938 57.748C66.5137 58.204 65.3017 58.432 63.9577 58.432Z" fill="#040B11"/>
<path d="M36.1554 79.045L39.0761 84.9628L45.6068 85.9119L40.8811 90.5182L41.9967 97.0225L36.1554 93.9516L30.3142 97.0225L31.4298 90.5182L26.7041 85.9118L33.2348 84.9628L36.1554 79.045Z" fill="#FFD700"/>
<path d="M35.5884 79.3761C36.0355 80.2821 36.4826 81.188 36.9297 82.094C37.4478 83.1438 37.966 84.1936 38.4841 85.2434C38.6756 85.6314 39.0674 85.6197 39.4309 85.6725C40.0563 85.7634 40.6818 85.8543 41.3072 85.9452C42.6013 86.1332 43.8953 86.3212 45.1894 86.5093C45.2702 86.521 45.3511 86.5328 45.432 86.5445C45.3355 86.1789 45.2389 85.8133 45.1424 85.4477C44.419 86.1528 43.6955 86.858 42.9721 87.5632C42.1337 88.3803 41.2954 89.1975 40.4571 90.0147C40.3623 90.107 40.2845 90.2106 40.2479 90.3436C40.2099 90.4819 40.2343 90.6132 40.2575 90.7481C40.2837 90.901 40.3099 91.0539 40.3361 91.2068C40.4424 91.8267 40.5487 92.4466 40.6551 93.0665C40.8768 94.3596 41.0986 95.6526 41.3204 96.9457C41.3347 97.0294 41.3491 97.1131 41.3635 97.1969C41.6848 96.9498 42.0062 96.7028 42.3275 96.4558C41.4333 95.9856 40.5391 95.5155 39.6449 95.0454C38.6086 94.5006 37.5724 93.9559 36.5362 93.4111C36.4166 93.3483 36.2963 93.2953 36.155 93.2953C36.0137 93.2953 35.8934 93.3483 35.7738 93.4111C35.6366 93.4833 35.4992 93.5555 35.3619 93.6277C34.8052 93.9203 34.2485 94.213 33.6918 94.5057C32.5306 95.1162 31.3694 95.7267 30.2081 96.3372C30.1329 96.3767 30.0577 96.4163 29.9826 96.4558C30.3039 96.7028 30.6252 96.9499 30.9466 97.1969C31.1174 96.2012 31.2881 95.2054 31.4589 94.2097C31.6568 93.0559 31.8547 91.902 32.0526 90.7482C32.0758 90.6132 32.1002 90.482 32.0622 90.3437C32.0256 90.2107 31.9478 90.1071 31.853 90.0147C31.7419 89.9064 31.6308 89.7982 31.5198 89.6899C31.0694 89.2509 30.619 88.8118 30.1686 88.3729C29.2292 87.4571 28.2897 86.5413 27.3502 85.6256C27.2894 85.5663 27.2286 85.507 27.1677 85.4477C27.0712 85.8133 26.9747 86.1789 26.8782 86.5446C27.8779 86.3993 28.8777 86.254 29.8775 86.1087C31.036 85.9404 32.1945 85.7721 33.3531 85.6037C33.7534 85.5456 33.884 85.1261 34.0379 84.8141C34.3177 84.2473 34.5974 83.6806 34.8771 83.1138C35.4558 81.9412 36.0345 80.7686 36.6132 79.5961C36.6493 79.5228 36.6855 79.4495 36.7217 79.3762C36.88 79.0554 36.8108 78.6684 36.4862 78.4783C36.1942 78.3073 35.7466 78.3932 35.5884 78.7138C35.1412 79.6197 34.6942 80.5257 34.2471 81.4316C33.7289 82.4814 33.2109 83.5312 32.6928 84.581C32.6844 84.5979 32.6761 84.6147 32.6678 84.6316C32.7985 84.5311 32.9293 84.4305 33.06 84.33C32.0602 84.4753 31.0605 84.6205 30.0607 84.7658C28.9022 84.9342 27.7436 85.1025 26.5851 85.2708C26.5665 85.2735 26.5479 85.2762 26.5293 85.2789C26.3112 85.3106 26.1258 85.5379 26.0709 85.7373C26.0094 85.9609 26.0727 86.213 26.2397 86.3758C26.9631 87.081 27.6866 87.7861 28.41 88.4913C29.2483 89.3085 30.0866 90.1257 30.925 90.9428C30.9384 90.956 30.9519 90.9691 30.9654 90.9822C30.9091 90.7694 30.8528 90.5566 30.7966 90.3437C30.6258 91.3394 30.455 92.3352 30.2842 93.3309C30.0863 94.4847 29.8884 95.6386 29.6906 96.7924C29.6874 96.8109 29.6842 96.8295 29.681 96.848C29.6403 97.0854 29.6718 97.3086 29.8498 97.4865C30.0653 97.702 30.3823 97.7273 30.645 97.5891C31.5393 97.119 32.4335 96.6489 33.3277 96.1788C34.3639 95.634 35.4001 95.0893 36.4363 94.5445C36.453 94.5357 36.4696 94.527 36.4863 94.5182C36.2654 94.5182 36.0446 94.5182 35.8238 94.5182C36.7181 94.9884 37.6123 95.4585 38.5065 95.9286C39.5427 96.4734 40.5789 97.0181 41.6152 97.5629C41.6318 97.5716 41.6484 97.5804 41.6651 97.5891C41.8754 97.6997 42.1181 97.7118 42.3275 97.5891C42.6001 97.4295 42.6796 97.1424 42.6291 96.848C42.4583 95.8523 42.2876 94.8566 42.1168 93.8608C41.9189 92.707 41.721 91.5531 41.5231 90.3993C41.5199 90.3808 41.5167 90.3623 41.5136 90.3437C41.4573 90.5566 41.4011 90.7694 41.3448 90.9822C42.0682 90.277 42.7917 89.5719 43.5151 88.8667C44.3535 88.0495 45.1918 87.2324 46.0301 86.4152C46.0436 86.4021 46.057 86.389 46.0705 86.3758C46.2375 86.2131 46.3008 85.961 46.2393 85.7374C46.1844 85.538 45.999 85.3107 45.7809 85.279C44.7812 85.1337 43.7814 84.9884 42.7816 84.8432C41.6231 84.6748 40.4645 84.5065 39.306 84.3381C39.2874 84.3354 39.2688 84.3327 39.2502 84.33C39.3809 84.4306 39.5116 84.5311 39.6423 84.6316C39.1953 83.7257 38.7481 82.8197 38.301 81.9138C37.7829 80.864 37.2648 79.8142 36.7467 78.7644C36.7384 78.7475 36.7301 78.7306 36.7217 78.7138C36.5635 78.3932 36.1159 78.3073 35.8239 78.4783C35.4993 78.6684 35.4301 79.0554 35.5884 79.3761Z" fill="#FFD700"/>
<path d="M62.1554 79.045L65.0761 84.9628L71.6068 85.9119L66.8811 90.5182L67.9967 97.0225L62.1554 93.9516L56.3142 97.0225L57.4298 90.5182L52.7041 85.9118L59.2348 84.9628L62.1554 79.045Z" fill="#FFD700"/>
<path d="M61.5884 79.3761C62.0355 80.2821 62.4826 81.188 62.9297 82.094C63.4478 83.1438 63.966 84.1936 64.4841 85.2434C64.6756 85.6314 65.0674 85.6197 65.4309 85.6725C66.0563 85.7634 66.6818 85.8543 67.3072 85.9452C68.6013 86.1332 69.8953 86.3212 71.1894 86.5093C71.2702 86.521 71.3511 86.5328 71.432 86.5445C71.3355 86.1789 71.2389 85.8133 71.1424 85.4477C70.419 86.1528 69.6955 86.858 68.9721 87.5632C68.1337 88.3803 67.2954 89.1975 66.4571 90.0147C66.3623 90.107 66.2845 90.2106 66.2479 90.3436C66.2099 90.4819 66.2343 90.6132 66.2575 90.7481C66.2837 90.901 66.3099 91.0539 66.3361 91.2068C66.4424 91.8267 66.5487 92.4466 66.6551 93.0665C66.8768 94.3596 67.0986 95.6526 67.3204 96.9457C67.3347 97.0294 67.3491 97.1131 67.3635 97.1969C67.6848 96.9498 68.0062 96.7028 68.3275 96.4558C67.4333 95.9856 66.5391 95.5155 65.6449 95.0454C64.6086 94.5006 63.5724 93.9559 62.5362 93.4111C62.4166 93.3483 62.2963 93.2953 62.155 93.2953C62.0137 93.2953 61.8934 93.3483 61.7738 93.4111C61.6366 93.4833 61.4992 93.5555 61.3619 93.6277C60.8052 93.9203 60.2485 94.213 59.6918 94.5057C58.5306 95.1162 57.3694 95.7267 56.2081 96.3372C56.1329 96.3767 56.0577 96.4163 55.9826 96.4558C56.3039 96.7028 56.6252 96.9499 56.9466 97.1969C57.1174 96.2012 57.2881 95.2054 57.4589 94.2097C57.6568 93.0559 57.8547 91.902 58.0526 90.7482C58.0758 90.6132 58.1002 90.482 58.0622 90.3437C58.0256 90.2107 57.9478 90.1071 57.853 90.0147C57.7419 89.9064 57.6308 89.7982 57.5198 89.6899C57.0694 89.2509 56.619 88.8118 56.1686 88.3729C55.2292 87.4571 54.2897 86.5413 53.3502 85.6256C53.2894 85.5663 53.2286 85.507 53.1677 85.4477C53.0712 85.8133 52.9747 86.1789 52.8782 86.5446C53.8779 86.3993 54.8777 86.254 55.8775 86.1087C57.036 85.9404 58.1945 85.7721 59.3531 85.6037C59.7534 85.5456 59.884 85.1261 60.0379 84.8141C60.3177 84.2473 60.5974 83.6806 60.8771 83.1138C61.4558 81.9412 62.0345 80.7686 62.6132 79.5961C62.6493 79.5228 62.6855 79.4495 62.7217 79.3762C62.88 79.0554 62.8108 78.6684 62.4862 78.4783C62.1942 78.3073 61.7466 78.3932 61.5884 78.7138C61.1412 79.6197 60.6942 80.5257 60.2471 81.4316C59.7289 82.4814 59.2109 83.5312 58.6928 84.581C58.6844 84.5979 58.6761 84.6147 58.6678 84.6316C58.7985 84.5311 58.9293 84.4305 59.06 84.33C58.0602 84.4753 57.0605 84.6205 56.0607 84.7658C54.9022 84.9342 53.7436 85.1025 52.5851 85.2708C52.5665 85.2735 52.5479 85.2762 52.5293 85.2789C52.3112 85.3106 52.1258 85.5379 52.0709 85.7373C52.0094 85.9609 52.0727 86.213 52.2397 86.3758C52.9631 87.081 53.6866 87.7861 54.41 88.4913C55.2483 89.3085 56.0866 90.1257 56.925 90.9428C56.9384 90.956 56.9519 90.9691 56.9654 90.9822C56.9091 90.7694 56.8528 90.5566 56.7966 90.3437C56.6258 91.3394 56.455 92.3352 56.2842 93.3309C56.0863 94.4847 55.8884 95.6386 55.6906 96.7924C55.6874 96.8109 55.6842 96.8295 55.681 96.848C55.6403 97.0854 55.6718 97.3086 55.8498 97.4865C56.0653 97.702 56.3823 97.7273 56.645 97.5891C57.5393 97.119 58.4335 96.6489 59.3277 96.1788C60.3639 95.634 61.4001 95.0893 62.4363 94.5445C62.453 94.5357 62.4696 94.527 62.4863 94.5182C62.2654 94.5182 62.0446 94.5182 61.8238 94.5182C62.7181 94.9884 63.6123 95.4585 64.5065 95.9286C65.5427 96.4734 66.5789 97.0181 67.6152 97.5629C67.6318 97.5716 67.6484 97.5804 67.6651 97.5891C67.8754 97.6997 68.1181 97.7118 68.3275 97.5891C68.6001 97.4295 68.6796 97.1424 68.6291 96.848C68.4583 95.8523 68.2876 94.8566 68.1168 93.8608C67.9189 92.707 67.721 91.5531 67.5231 90.3993C67.5199 90.3808 67.5167 90.3623 67.5136 90.3437C67.4573 90.5566 67.4011 90.7694 67.3448 90.9822C68.0682 90.277 68.7917 89.5719 69.5151 88.8667C70.3535 88.0495 71.1918 87.2324 72.0301 86.4152C72.0436 86.4021 72.057 86.389 72.0705 86.3758C72.2375 86.2131 72.3008 85.961 72.2393 85.7374C72.1844 85.538 71.999 85.3107 71.7809 85.279C70.7812 85.1337 69.7814 84.9884 68.7816 84.8432C67.6231 84.6748 66.4645 84.5065 65.306 84.3381C65.2874 84.3354 65.2688 84.3327 65.2502 84.33C65.3809 84.4306 65.5116 84.5311 65.6423 84.6316C65.1953 83.7257 64.7481 82.8197 64.301 81.9138C63.7829 80.864 63.2648 79.8142 62.7467 78.7644C62.7384 78.7475 62.7301 78.7306 62.7217 78.7138C62.5635 78.3932 62.1159 78.3073 61.8239 78.4783C61.4993 78.6684 61.4301 79.0554 61.5884 79.3761Z" fill="#FFD700"/>
<path d="M88.1554 79.045L91.0761 84.9628L97.6068 85.9119L92.8811 90.5182L93.9967 97.0225L88.1554 93.9516L82.3142 97.0225L83.4298 90.5182L78.7041 85.9118L85.2348 84.9628L88.1554 79.045Z" fill="#FFD700"/>
<path d="M87.5884 79.3761C88.0355 80.2821 88.4826 81.188 88.9297 82.094C89.4478 83.1438 89.966 84.1936 90.4841 85.2434C90.6756 85.6314 91.0674 85.6197 91.4309 85.6725C92.0563 85.7634 92.6818 85.8543 93.3072 85.9452C94.6013 86.1332 95.8953 86.3212 97.1894 86.5093C97.2702 86.521 97.3511 86.5328 97.432 86.5445C97.3355 86.1789 97.2389 85.8133 97.1424 85.4477C96.419 86.1528 95.6955 86.858 94.9721 87.5632C94.1337 88.3803 93.2954 89.1975 92.4571 90.0147C92.3623 90.107 92.2845 90.2106 92.2479 90.3436C92.2099 90.4819 92.2343 90.6132 92.2575 90.7481C92.2837 90.901 92.3099 91.0539 92.3361 91.2068C92.4424 91.8267 92.5487 92.4466 92.6551 93.0665C92.8768 94.3596 93.0986 95.6526 93.3204 96.9457C93.3347 97.0294 93.3491 97.1131 93.3635 97.1969C93.6848 96.9498 94.0062 96.7028 94.3275 96.4558C93.4333 95.9856 92.5391 95.5155 91.6449 95.0454C90.6086 94.5006 89.5724 93.9559 88.5362 93.4111C88.4166 93.3483 88.2963 93.2953 88.155 93.2953C88.0137 93.2953 87.8934 93.3483 87.7738 93.4111C87.6366 93.4833 87.4992 93.5555 87.3619 93.6277C86.8052 93.9203 86.2485 94.213 85.6918 94.5057C84.5306 95.1162 83.3694 95.7267 82.2081 96.3372C82.1329 96.3767 82.0577 96.4163 81.9826 96.4558C82.3039 96.7028 82.6252 96.9499 82.9466 97.1969C83.1174 96.2012 83.2881 95.2054 83.4589 94.2097C83.6568 93.0559 83.8547 91.902 84.0526 90.7482C84.0758 90.6132 84.1002 90.482 84.0622 90.3437C84.0256 90.2107 83.9478 90.1071 83.853 90.0147C83.7419 89.9064 83.6308 89.7982 83.5198 89.6899C83.0694 89.2509 82.619 88.8118 82.1686 88.3729C81.2292 87.4571 80.2897 86.5413 79.3502 85.6256C79.2894 85.5663 79.2286 85.507 79.1677 85.4477C79.0712 85.8133 78.9747 86.1789 78.8782 86.5446C79.8779 86.3993 80.8777 86.254 81.8775 86.1087C83.036 85.9404 84.1945 85.7721 85.3531 85.6037C85.7534 85.5456 85.884 85.1261 86.0379 84.8141C86.3177 84.2473 86.5974 83.6806 86.8771 83.1138C87.4558 81.9412 88.0345 80.7686 88.6132 79.5961C88.6493 79.5228 88.6855 79.4495 88.7217 79.3762C88.88 79.0554 88.8108 78.6684 88.4862 78.4783C88.1942 78.3073 87.7466 78.3932 87.5884 78.7138C87.1412 79.6197 86.6942 80.5257 86.2471 81.4316C85.7289 82.4814 85.2109 83.5312 84.6928 84.581C84.6844 84.5979 84.6761 84.6147 84.6678 84.6316C84.7985 84.5311 84.9293 84.4305 85.06 84.33C84.0602 84.4753 83.0605 84.6205 82.0607 84.7658C80.9022 84.9342 79.7436 85.1025 78.5851 85.2708C78.5665 85.2735 78.5479 85.2762 78.5293 85.2789C78.3112 85.3106 78.1258 85.5379 78.0709 85.7373C78.0094 85.9609 78.0727 86.213 78.2397 86.3758C78.9631 87.081 79.6866 87.7861 80.41 88.4913C81.2483 89.3085 82.0866 90.1257 82.925 90.9428C82.9384 90.956 82.9519 90.9691 82.9654 90.9822C82.9091 90.7694 82.8528 90.5566 82.7966 90.3437C82.6258 91.3394 82.455 92.3352 82.2842 93.3309C82.0863 94.4847 81.8884 95.6386 81.6906 96.7924C81.6874 96.8109 81.6842 96.8295 81.681 96.848C81.6403 97.0854 81.6718 97.3086 81.8498 97.4865C82.0653 97.702 82.3823 97.7273 82.645 97.5891C83.5393 97.119 84.4335 96.6489 85.3277 96.1788C86.3639 95.634 87.4001 95.0893 88.4363 94.5445C88.453 94.5357 88.4696 94.527 88.4863 94.5182C88.2654 94.5182 88.0446 94.5182 87.8238 94.5182C88.7181 94.9884 89.6123 95.4585 90.5065 95.9286C91.5427 96.4734 92.5789 97.0181 93.6152 97.5629C93.6318 97.5716 93.6484 97.5804 93.6651 97.5891C93.8754 97.6997 94.1181 97.7118 94.3275 97.5891C94.6001 97.4295 94.6796 97.1424 94.6291 96.848C94.4583 95.8523 94.2876 94.8566 94.1168 93.8608C93.9189 92.707 93.721 91.5531 93.5231 90.3993C93.5199 90.3808 93.5167 90.3623 93.5136 90.3437C93.4573 90.5566 93.4011 90.7694 93.3448 90.9822C94.0682 90.277 94.7917 89.5719 95.5151 88.8667C96.3535 88.0495 97.1918 87.2324 98.0301 86.4152C98.0436 86.4021 98.057 86.389 98.0705 86.3758C98.2375 86.2131 98.3008 85.961 98.2393 85.7374C98.1844 85.538 97.999 85.3107 97.7809 85.279C96.7812 85.1337 95.7814 84.9884 94.7816 84.8432C93.6231 84.6748 92.4645 84.5065 91.306 84.3381C91.2874 84.3354 91.2688 84.3327 91.2502 84.33C91.3809 84.4306 91.5116 84.5311 91.6423 84.6316C91.1953 83.7257 90.7481 82.8197 90.301 81.9138C89.7829 80.864 89.2648 79.8142 88.7467 78.7644C88.7384 78.7475 88.7301 78.7306 88.7217 78.7138C88.5635 78.3932 88.1159 78.3073 87.8239 78.4783C87.4993 78.6684 87.4301 79.0554 87.5884 79.3761Z" fill="#FFD700"/>
<path d="M114.155 79.045L117.076 84.9628L123.607 85.9119L118.881 90.5182L119.997 97.0225L114.155 93.9516L108.314 97.0225L109.43 90.5182L104.704 85.9118L111.235 84.9628L114.155 79.045Z" fill="#FFD700"/>
<path d="M113.588 79.3761C114.036 80.2821 114.483 81.188 114.93 82.094C115.448 83.1438 115.966 84.1936 116.484 85.2434C116.676 85.6314 117.067 85.6197 117.431 85.6725C118.056 85.7634 118.682 85.8543 119.307 85.9452C120.601 86.1332 121.895 86.3212 123.189 86.5093C123.27 86.521 123.351 86.5328 123.432 86.5445C123.335 86.1789 123.239 85.8133 123.142 85.4477C122.419 86.1528 121.696 86.858 120.972 87.5632C120.134 88.3803 119.295 89.1975 118.457 90.0147C118.362 90.107 118.285 90.2106 118.248 90.3436C118.21 90.4819 118.234 90.6132 118.257 90.7481C118.284 90.901 118.31 91.0539 118.336 91.2068C118.442 91.8267 118.549 92.4466 118.655 93.0665C118.877 94.3596 119.099 95.6526 119.32 96.9457C119.335 97.0294 119.349 97.1131 119.363 97.1969C119.685 96.9498 120.006 96.7028 120.328 96.4558C119.433 95.9856 118.539 95.5155 117.645 95.0454C116.609 94.5006 115.572 93.9559 114.536 93.4111C114.417 93.3483 114.296 93.2953 114.155 93.2953C114.014 93.2953 113.893 93.3483 113.774 93.4111C113.637 93.4833 113.499 93.5555 113.362 93.6277C112.805 93.9203 112.249 94.213 111.692 94.5057C110.531 95.1162 109.369 95.7267 108.208 96.3372C108.133 96.3767 108.058 96.4163 107.983 96.4558C108.304 96.7028 108.625 96.9499 108.947 97.1969C109.117 96.2012 109.288 95.2054 109.459 94.2097C109.657 93.0559 109.855 91.902 110.053 90.7482C110.076 90.6132 110.1 90.482 110.062 90.3437C110.026 90.2107 109.948 90.1071 109.853 90.0147C109.742 89.9064 109.631 89.7982 109.52 89.6899C109.069 89.2509 108.619 88.8118 108.169 88.3729C107.229 87.4571 106.29 86.5413 105.35 85.6256C105.289 85.5663 105.229 85.507 105.168 85.4477C105.071 85.8133 104.975 86.1789 104.878 86.5446C105.878 86.3993 106.878 86.254 107.877 86.1087C109.036 85.9404 110.195 85.7721 111.353 85.6037C111.753 85.5456 111.884 85.1261 112.038 84.8141C112.318 84.2473 112.597 83.6806 112.877 83.1138C113.456 81.9412 114.034 80.7686 114.613 79.5961C114.649 79.5228 114.685 79.4495 114.722 79.3762C114.88 79.0554 114.811 78.6684 114.486 78.4783C114.194 78.3073 113.747 78.3932 113.588 78.7138C113.141 79.6197 112.694 80.5257 112.247 81.4316C111.729 82.4814 111.211 83.5312 110.693 84.581C110.684 84.5979 110.676 84.6147 110.668 84.6316C110.799 84.5311 110.929 84.4305 111.06 84.33C110.06 84.4753 109.06 84.6205 108.061 84.7658C106.902 84.9342 105.744 85.1025 104.585 85.2708C104.566 85.2735 104.548 85.2762 104.529 85.2789C104.311 85.3106 104.126 85.5379 104.071 85.7373C104.009 85.9609 104.073 86.213 104.24 86.3758C104.963 87.081 105.687 87.7861 106.41 88.4913C107.248 89.3085 108.087 90.1257 108.925 90.9428C108.938 90.956 108.952 90.9691 108.965 90.9822C108.909 90.7694 108.853 90.5566 108.797 90.3437C108.626 91.3394 108.455 92.3352 108.284 93.3309C108.086 94.4847 107.888 95.6386 107.691 96.7924C107.687 96.8109 107.684 96.8295 107.681 96.848C107.64 97.0854 107.672 97.3086 107.85 97.4865C108.065 97.702 108.382 97.7273 108.645 97.5891C109.539 97.119 110.433 96.6489 111.328 96.1788C112.364 95.634 113.4 95.0893 114.436 94.5445C114.453 94.5357 114.47 94.527 114.486 94.5182C114.265 94.5182 114.045 94.5182 113.824 94.5182C114.718 94.9884 115.612 95.4585 116.506 95.9286C117.543 96.4734 118.579 97.0181 119.615 97.5629C119.632 97.5716 119.648 97.5804 119.665 97.5891C119.875 97.6997 120.118 97.7118 120.328 97.5891C120.6 97.4295 120.68 97.1424 120.629 96.848C120.458 95.8523 120.288 94.8566 120.117 93.8608C119.919 92.707 119.721 91.5531 119.523 90.3993C119.52 90.3808 119.517 90.3623 119.514 90.3437C119.457 90.5566 119.401 90.7694 119.345 90.9822C120.068 90.277 120.792 89.5719 121.515 88.8667C122.353 88.0495 123.192 87.2324 124.03 86.4152C124.044 86.4021 124.057 86.389 124.071 86.3758C124.237 86.2131 124.301 85.961 124.239 85.7374C124.184 85.538 123.999 85.3107 123.781 85.279C122.781 85.1337 121.781 84.9884 120.782 84.8432C119.623 84.6748 118.465 84.5065 117.306 84.3381C117.287 84.3354 117.269 84.3327 117.25 84.33C117.381 84.4306 117.512 84.5311 117.642 84.6316C117.195 83.7257 116.748 82.8197 116.301 81.9138C115.783 80.864 115.265 79.8142 114.747 78.7644C114.738 78.7475 114.73 78.7306 114.722 78.7138C114.564 78.3932 114.116 78.3073 113.824 78.4783C113.499 78.6684 113.43 79.0554 113.588 79.3761Z" fill="#FFD700"/>
<path d="M140.155 79.045L143.076 84.9628L149.607 85.9119L144.881 90.5182L145.997 97.0225L140.155 93.9516L134.314 97.0225L135.43 90.5182L130.704 85.9118L137.235 84.9628L140.155 79.045Z" fill="url(#paint0_linear_140_13812)"/>
<path d="M139.588 79.3761C140.036 80.2821 140.483 81.188 140.93 82.094C141.448 83.1438 141.966 84.1936 142.484 85.2434C142.676 85.6314 143.067 85.6197 143.431 85.6725C144.056 85.7634 144.682 85.8543 145.307 85.9452C146.601 86.1332 147.895 86.3212 149.189 86.5093C149.27 86.521 149.351 86.5328 149.432 86.5445C149.335 86.1789 149.239 85.8133 149.142 85.4477C148.419 86.1528 147.696 86.858 146.972 87.5632C146.134 88.3803 145.295 89.1975 144.457 90.0147C144.362 90.107 144.285 90.2106 144.248 90.3436C144.21 90.4819 144.234 90.6132 144.257 90.7481C144.284 90.901 144.31 91.0539 144.336 91.2068C144.442 91.8267 144.549 92.4466 144.655 93.0665C144.877 94.3596 145.099 95.6526 145.32 96.9457C145.335 97.0294 145.349 97.1131 145.363 97.1969C145.685 96.9498 146.006 96.7028 146.328 96.4558C145.433 95.9856 144.539 95.5155 143.645 95.0454C142.609 94.5006 141.572 93.9559 140.536 93.4111C140.417 93.3483 140.296 93.2953 140.155 93.2953C140.014 93.2953 139.893 93.3483 139.774 93.4111C139.637 93.4833 139.499 93.5555 139.362 93.6277C138.805 93.9203 138.249 94.213 137.692 94.5057C136.531 95.1162 135.369 95.7267 134.208 96.3372C134.133 96.3767 134.058 96.4163 133.983 96.4558C134.304 96.7028 134.625 96.9499 134.947 97.1969C135.117 96.2012 135.288 95.2054 135.459 94.2097C135.657 93.0559 135.855 91.902 136.053 90.7482C136.076 90.6132 136.1 90.482 136.062 90.3437C136.026 90.2107 135.948 90.1071 135.853 90.0147C135.742 89.9064 135.631 89.7982 135.52 89.6899C135.069 89.2509 134.619 88.8118 134.169 88.3729C133.229 87.4571 132.29 86.5413 131.35 85.6256C131.289 85.5663 131.229 85.507 131.168 85.4477C131.071 85.8133 130.975 86.1789 130.878 86.5446C131.878 86.3993 132.878 86.254 133.877 86.1087C135.036 85.9404 136.195 85.7721 137.353 85.6037C137.753 85.5456 137.884 85.1261 138.038 84.8141C138.318 84.2473 138.597 83.6806 138.877 83.1138C139.456 81.9412 140.034 80.7686 140.613 79.5961C140.649 79.5228 140.685 79.4495 140.722 79.3762C140.88 79.0554 140.811 78.6684 140.486 78.4783C140.194 78.3073 139.747 78.3932 139.588 78.7138C139.141 79.6197 138.694 80.5257 138.247 81.4316C137.729 82.4814 137.211 83.5312 136.693 84.581C136.684 84.5979 136.676 84.6147 136.668 84.6316C136.799 84.5311 136.929 84.4305 137.06 84.33C136.06 84.4753 135.06 84.6205 134.061 84.7658C132.902 84.9342 131.744 85.1025 130.585 85.2708C130.566 85.2735 130.548 85.2762 130.529 85.2789C130.311 85.3106 130.126 85.5379 130.071 85.7373C130.009 85.9609 130.073 86.213 130.24 86.3758C130.963 87.081 131.687 87.7861 132.41 88.4913C133.248 89.3085 134.087 90.1257 134.925 90.9428C134.938 90.956 134.952 90.9691 134.965 90.9822C134.909 90.7694 134.853 90.5566 134.797 90.3437C134.626 91.3394 134.455 92.3352 134.284 93.3309C134.086 94.4847 133.888 95.6386 133.691 96.7924C133.687 96.8109 133.684 96.8295 133.681 96.848C133.64 97.0854 133.672 97.3086 133.85 97.4865C134.065 97.702 134.382 97.7273 134.645 97.5891C135.539 97.119 136.433 96.6489 137.328 96.1788C138.364 95.634 139.4 95.0893 140.436 94.5445C140.453 94.5357 140.47 94.527 140.486 94.5182C140.265 94.5182 140.045 94.5182 139.824 94.5182C140.718 94.9884 141.612 95.4585 142.506 95.9286C143.543 96.4734 144.579 97.0181 145.615 97.5629C145.632 97.5716 145.648 97.5804 145.665 97.5891C145.875 97.6997 146.118 97.7118 146.328 97.5891C146.6 97.4295 146.68 97.1424 146.629 96.848C146.458 95.8523 146.288 94.8566 146.117 93.8608C145.919 92.707 145.721 91.5531 145.523 90.3993C145.52 90.3808 145.517 90.3623 145.514 90.3437C145.457 90.5566 145.401 90.7694 145.345 90.9822C146.068 90.277 146.792 89.5719 147.515 88.8667C148.353 88.0495 149.192 87.2324 150.03 86.4152C150.044 86.4021 150.057 86.389 150.071 86.3758C150.237 86.2131 150.301 85.961 150.239 85.7374C150.184 85.538 149.999 85.3107 149.781 85.279C148.781 85.1337 147.781 84.9884 146.782 84.8432C145.623 84.6748 144.465 84.5065 143.306 84.3381C143.287 84.3354 143.269 84.3327 143.25 84.33C143.381 84.4306 143.512 84.5311 143.642 84.6316C143.195 83.7257 142.748 82.8197 142.301 81.9138C141.783 80.864 141.265 79.8142 140.747 78.7644C140.738 78.7475 140.73 78.7306 140.722 78.7138C140.564 78.3932 140.116 78.3073 139.824 78.4783C139.499 78.6684 139.43 79.0554 139.588 79.3761Z" fill="#FFD700"/>
<defs>
<linearGradient id="paint0_linear_140_13812" x1="149.607" y1="88.0338" x2="130.704" y2="88.0338" gradientUnits="userSpaceOnUse">
<stop offset="0.486107" stop-color="#FAFAFA"/>
<stop offset="0.514871" stop-color="#FFD700"/>
</linearGradient>
</defs>
</svg>
