<svg width="120" height="24" viewBox="0 0 120 24" fill="none" xmlns="http://www.w3.org/2000/svg">
<path d="M10.6766 4.31233C11.0932 3.03033 12.9069 3.03033 13.3234 4.31232L14.4993 7.93132C14.6856 8.50465 15.2198 8.89282 15.8227 8.89282H19.6279C20.9759 8.89282 21.5363 10.6177 20.4458 11.41L17.3673 13.6467C16.8796 14.001 16.6755 14.6291 16.8618 15.2024L18.0377 18.8214C18.4542 20.1034 16.9869 21.1695 15.8964 20.3772L12.8179 18.1405C12.3302 17.7862 11.6698 17.7862 11.1821 18.1405L8.10361 20.3772C7.01308 21.1695 5.54579 20.1034 5.96233 18.8214L7.13822 15.2024C7.3245 14.6291 7.12043 14.001 6.63273 13.6467L3.55423 11.41C2.4637 10.6177 3.02415 8.89282 4.37212 8.89282H8.17736C8.78019 8.89282 9.31446 8.50465 9.50074 7.93132L10.6766 4.31233Z" fill="#FFD700"/>
<path d="M34.6766 4.31233C35.0932 3.03033 36.9069 3.03033 37.3234 4.31232L38.4993 7.93132C38.6856 8.50465 39.2198 8.89282 39.8227 8.89282H43.6279C44.9759 8.89282 45.5363 10.6177 44.4458 11.41L41.3673 13.6467C40.8796 14.001 40.6755 14.6291 40.8618 15.2024L42.0377 18.8214C42.4542 20.1034 40.9869 21.1695 39.8964 20.3772L36.8179 18.1405C36.3302 17.7862 35.6698 17.7862 35.1821 18.1405L32.1036 20.3772C31.0131 21.1695 29.5458 20.1034 29.9623 18.8214L31.1382 15.2024C31.3245 14.6291 31.1204 14.001 30.6327 13.6467L27.5542 11.41C26.4637 10.6177 27.0242 8.89282 28.3721 8.89282H32.1774C32.7802 8.89282 33.3145 8.50465 33.5007 7.93132L34.6766 4.31233Z" fill="#FFD700"/>
<path d="M58.6766 4.31233C59.0932 3.03033 60.9069 3.03033 61.3234 4.31232L62.4993 7.93132C62.6856 8.50465 63.2198 8.89282 63.8227 8.89282H67.6279C68.9759 8.89282 69.5363 10.6177 68.4458 11.41L65.3673 13.6467C64.8796 14.001 64.6755 14.6291 64.8618 15.2024L66.0377 18.8214C66.4542 20.1034 64.9869 21.1695 63.8964 20.3772L60.8179 18.1405C60.3302 17.7862 59.6698 17.7862 59.1821 18.1405L56.1036 20.3772C55.0131 21.1695 53.5458 20.1034 53.9623 18.8214L55.1382 15.2024C55.3245 14.6291 55.1204 14.001 54.6327 13.6467L51.5542 11.41C50.4637 10.6177 51.0242 8.89282 52.3721 8.89282H56.1774C56.7802 8.89282 57.3145 8.50465 57.5007 7.93132L58.6766 4.31233Z" fill="#FFD700"/>
<path d="M82.6766 4.31233C83.0932 3.03033 84.9069 3.03033 85.3234 4.31232L86.4993 7.93132C86.6856 8.50465 87.2198 8.89282 87.8227 8.89282H91.6279C92.9759 8.89282 93.5363 10.6177 92.4458 11.41L89.3673 13.6467C88.8796 14.001 88.6755 14.6291 88.8618 15.2024L90.0377 18.8214C90.4542 20.1034 88.9869 21.1695 87.8964 20.3772L84.8179 18.1405C84.3302 17.7862 83.6698 17.7862 83.1821 18.1405L80.1036 20.3772C79.0131 21.1695 77.5458 20.1034 77.9623 18.8214L79.1382 15.2024C79.3245 14.6291 79.1204 14.001 78.6327 13.6467L75.5542 11.41C74.4637 10.6177 75.0242 8.89282 76.3721 8.89282H80.1774C80.7802 8.89282 81.3145 8.50465 81.5007 7.93132L82.6766 4.31233Z" fill="#FFD700" fill-opacity="0.2"/>
<path d="M106.677 4.31233C107.093 3.03033 108.907 3.03033 109.323 4.31232L110.499 7.93132C110.686 8.50465 111.22 8.89282 111.823 8.89282H115.628C116.976 8.89282 117.536 10.6177 116.446 11.41L113.367 13.6467C112.88 14.001 112.676 14.6291 112.862 15.2024L114.038 18.8214C114.454 20.1034 112.987 21.1695 111.896 20.3772L108.818 18.1405C108.33 17.7862 107.67 17.7862 107.182 18.1405L104.104 20.3772C103.013 21.1695 101.546 20.1034 101.962 18.8214L103.138 15.2024C103.325 14.6291 103.12 14.001 102.633 13.6467L99.5542 11.41C98.4637 10.6177 99.0242 8.89282 100.372 8.89282H104.177C104.78 8.89282 105.314 8.50465 105.501 7.93132L106.677 4.31233Z" fill="#FFD700" fill-opacity="0.2"/>
</svg>
