<svg width="40" height="40" viewBox="0 0 40 40" fill="none" xmlns="http://www.w3.org/2000/svg">
<rect width="40" height="40" rx="20" fill="#E6F2F9"/>
<path d="M29.56 18.7401L28.2 17.1601C27.94 16.8601 27.73 16.3001 27.73 15.9001V14.2001C27.73 13.1401 26.86 12.2701 25.8 12.2701H24.1C23.71 12.2701 23.14 12.0601 22.84 11.8001L21.26 10.4401C20.57 9.85006 19.44 9.85006 18.74 10.4401L17.17 11.8101C16.87 12.0601 16.3 12.2701 15.91 12.2701H14.18C13.12 12.2701 12.25 13.1401 12.25 14.2001V15.9101C12.25 16.3001 12.04 16.8601 11.79 17.1601L10.44 18.7501C9.86 19.4401 9.86 20.5601 10.44 21.2501L11.79 22.8401C12.04 23.1401 12.25 23.7001 12.25 24.0901V25.8001C12.25 26.8601 13.12 27.7301 14.18 27.7301H15.91C16.3 27.7301 16.87 27.9401 17.17 28.2001L18.75 29.5601C19.44 30.1501 20.57 30.1501 21.27 29.5601L22.85 28.2001C23.15 27.9401 23.71 27.7301 24.11 27.7301H25.81C26.87 27.7301 27.74 26.8601 27.74 25.8001V24.1001C27.74 23.7101 27.95 23.1401 28.21 22.8401L29.57 21.2601C30.15 20.5701 30.15 19.4301 29.56 18.7401ZM24.16 18.1101L19.33 22.9401C19.19 23.0801 19 23.1601 18.8 23.1601C18.6 23.1601 18.41 23.0801 18.27 22.9401L15.85 20.5201C15.56 20.2301 15.56 19.7501 15.85 19.4601C16.14 19.1701 16.62 19.1701 16.91 19.4601L18.8 21.3501L23.1 17.0501C23.39 16.7601 23.87 16.7601 24.16 17.0501C24.45 17.3401 24.45 17.8201 24.16 18.1101Z" fill="#2572A7"/>
</svg>
