<svg width="32" height="32" viewBox="0 0 32 32" fill="none" xmlns="http://www.w3.org/2000/svg">
<rect width="32" height="32" rx="8" fill="#FFCC00"/>
<path d="M13 26H19C24 26 26 24 26 19V13C26 8 24 6 19 6H13C8 6 6 8 6 13V19C6 24 8 26 13 26Z" stroke="#FDFDFD" stroke-width="1.5" stroke-linecap="round" stroke-linejoin="round"/>
<path d="M21 6.43945V16.4195C21 18.3895 19.59 19.1595 17.86 18.1195L16.54 17.3295C16.24 17.1495 15.76 17.1495 15.46 17.3295L14.14 18.1195C12.41 19.1495 11 18.3895 11 16.4195V6.43945" stroke="#FDFDFD" stroke-width="1.5" stroke-linecap="round" stroke-linejoin="round"/>
<path d="M13 26H19C24 26 26 24 26 19V13C26 8 24 6 19 6H13C8 6 6 8 6 13V19C6 24 8 26 13 26Z" stroke="#FDFDFD" stroke-width="1.5" stroke-linecap="round" stroke-linejoin="round"/>
<path d="M21 6.43945V16.4195C21 18.3895 19.59 19.1595 17.86 18.1195L16.54 17.3295C16.24 17.1495 15.76 17.1495 15.46 17.3295L14.14 18.1195C12.41 19.1495 11 18.3895 11 16.4195V6.43945" stroke="#FDFDFD" stroke-width="1.5" stroke-linecap="round" stroke-linejoin="round"/>
</svg>
